<?xml version="1.0" standalone="no"?>
<!DOCTYPE svg PUBLIC "-//W3C//DTD SVG 1.1//EN" "http://www.w3.org/Graphics/SVG/1.1/DTD/svg11.dtd" >
<svg xmlns="http://www.w3.org/2000/svg">
<metadata>
Created by FontForge 20120731 at Tue Mar 28 15:59:56 2017
 By admin
</metadata>
<defs>
<font id="iconfont" horiz-adv-x="1024" >
  <font-face 
    font-family="iconfont"
    font-weight="500"
    font-stretch="normal"
    units-per-em="1024"
    panose-1="2 0 6 3 0 0 0 0 0 0"
    ascent="896"
    descent="-128"
    x-height="792"
    bbox="-0.53125 -224 1390 896"
    underline-thickness="0"
    underline-position="0"
    unicode-range="U+0078-E888"
  />
<missing-glyph 
 />
    <glyph glyph-name=".notdef" 
 />
    <glyph glyph-name=".notdef" 
 />
    <glyph glyph-name=".null" horiz-adv-x="0" 
 />
    <glyph glyph-name="nonmarkingreturn" horiz-adv-x="341" 
 />
    <glyph glyph-name="glyph3" unicode="x" horiz-adv-x="1001" 
d="M281 543q-27 -1 -53 -1h-83q-18 0 -36.5 -6t-32.5 -18.5t-23 -32t-9 -45.5v-76h912v41q0 16 -0.5 30t-0.5 18q0 13 -5 29t-17 29.5t-31.5 22.5t-49.5 9h-133v-97h-438v97zM955 310v-52q0 -23 0.5 -52t0.5 -58t-10.5 -47.5t-26 -30t-33 -16t-31.5 -4.5q-14 -1 -29.5 -0.5
t-29.5 0.5h-32l-45 128h-439l-44 -128h-29h-34q-20 0 -45 1q-25 0 -41 9.5t-25.5 23t-13.5 29.5t-4 30v167h911zM163 247q-12 0 -21 -8.5t-9 -21.5t9 -21.5t21 -8.5q13 0 22 8.5t9 21.5t-9 21.5t-22 8.5zM316 123q-8 -26 -14 -48q-5 -19 -10.5 -37t-7.5 -25t-3 -15t1 -14.5
t9.5 -10.5t21.5 -4h37h67h81h80h64h36q23 0 34 12t2 38q-5 13 -9.5 30.5t-9.5 34.5q-5 19 -11 39h-368zM336 498v228q0 11 2.5 23t10 21.5t20.5 15.5t34 6h188q31 0 51.5 -14.5t20.5 -52.5v-227h-327z" />
    <glyph glyph-name="fanhui" unicode="&#xe601;" 
d="M625 692l-40 40l-365 -366l365 -366l40 40l-326 326z" />
    <glyph glyph-name="fanhui1" unicode="&#xe619;" 
d="M629 652l-298 -308v0l-43 -44l43 -44v0l298 -308l43 44l-299 308l299 308z" />
    <glyph glyph-name="jianshao" unicode="&#xe61e;" 
d="M151 663q119 119 288 144q102 14 200 -11t180 -86.5t133.5 -148.5t66.5 -188q15 -103 -12 -202.5t-85 -177.5t-146 -131.5t-191 -68.5q-88 -12 -175.5 5.5t-162.5 63.5q-13 8 -17 22.5t4 27.5t23 17t28 -4q134 -82 289 -59q118 16 210 89t135.5 181t26.5 226
q-12 87 -56.5 161.5t-114.5 127.5t-154 74.5t-171 8.5q-118 -17 -210 -89.5t-135.5 -181t-26.5 -225.5q13 -95 64 -175q9 -12 5.5 -27t-16 -23t-27.5 -5t-23 16q-60 93 -76 203q-14 102 11 200t86 180q23 30 49 56v0zM151 663zM553 269h223q15 0 25.5 10.5t10.5 26t-10.5 26
t-25.5 10.5h-223h-73h-221q-15 0 -26 -10.5t-11 -26t11 -26t26 -10.5h221h73v0zM567 305z" />
    <glyph glyph-name="rili" unicode="&#xe62f;" 
d="M290 584q19 0 31.5 13t12.5 33v43v0v0v43q0 19 -12 32q-20 21 -48 10.5t-28 -40.5q-1 -19 0 -45v-42q0 -20 12.5 -33.5t31.5 -13.5zM737.5 583q18.5 0 31 13.5t12.5 32.5v43v0v0v43q0 20 -11 32q-21 22 -49 11t-28 -41v-45v-42q0 -20 13 -33.5t31.5 -13.5zM544 255h118
v-87h-118v87zM723 374h117v-87h-117v87zM723 255h117v-87h-117v87zM365 136h118v-88h-118v88zM544 136h117v-87h-117v87zM723 136h117v-87h-117v87zM186 136h118v-88h-118v88v0zM187 255h117v-88h-117v88v0zM544 374h117v-87h-117v87zM365 255h118v-87h-118v87zM365 374h118
v-87h-118v87zM942 673h-110v-15q-1 -40 -26 -68t-63 -31h-7t-8 1q-37 3 -62 31.5t-25 67.5v14h-258v-15q0 -42 -27.5 -70.5t-67.5 -28.5t-68 29t-28 71v14h-110q-8 0 -13 -5t-5 -12v-739q0 -7 5 -12t13 -5h860q8 0 13 5t5 12v739q0 7 -5 12t-13 5zM907 -42h-787v24v28v430
h787v-430v0v-52v0v0z" />
    <glyph glyph-name="tupian" unicode="&#xe630;" 
d="M769.5 530q-27.5 0 -47.5 -20t-20 -48t20 -47.5t47.5 -19.5t47.5 19.5t20 47.5t-20 48t-47.5 20zM5 706v-504v-239v-68h68h878h68v68v78v665h-1014zM768 291l-151 -152l-337 338l-241 -241v436h946v-597z" />
    <glyph glyph-name="close" unicode="&#xe606;" 
d="M960 690l-45 46l-402 -403l-403 403l-45 -46l402 -402l-402 -403l45 -45l403 403l402 -403l45 45l-402 403z" />
    <glyph glyph-name="xiala2" unicode="&#xe62c;" 
d="M784 441l-272 -271l-272 271l-45 -45l317 -317l317 317z" />
    <glyph glyph-name="houdongfangiconfont28" unicode="&#xe629;" 
d="M799 300q0 -34 -30 -53v0l-450 -266v0v0v0q-16 -9 -32 -9q-26 0 -44 18t-18 44v0v532v0q0 26 18 44t44 18q17 0 31 -9v0v0v0l450 -266v0q31 -19 31 -53z" />
    <glyph glyph-name="iconfontzhuye" unicode="&#xe667;" 
d="M918 289q10 9 9.5 22t-8.5 22l-388 406q-8 8 -19 8t-18 -8l-390 -406q-8 -7 -7.5 -19.5t10.5 -19.5q22 -12 40 7l26 25v-384q0 -6 9 -13.5t19 -7.5h124v-1h370v1h127q11 0 20 8.5t9 18.5v377q19 -20 26 -28q6 -7 17.5 -10.5t23.5 2.5zM613 -30h-200l-1 296h201v-296z
M800 -29h-137v319q0 11 -7.5 18.5t-18.5 7.5h-249q-11 0 -18.5 -7.5t-7.5 -18.5v-319h-138v407l288 300l288 -302v-405v0zM707 641h56v-85l50 -64v172q0 11 -7.5 19.5t-18.5 8.5h-114l-43 1l54 -52h23z" />
    <glyph glyph-name="yingsaitong" unicode="&#xe60d;" 
d="M871 405l-291 302q-28 30 -68 30t-68 -30l-291 -302q-35 -37 -21 -70q13 -30 50 -30h42v-233q0 -41 26.5 -71.5t65.5 -30.5h124v55v191v10.5v9.5t0.5 7t2 6.5l4 4t6.5 3t10 0.5h98q6 0 10 -0.5t6.5 -3l4 -4t2 -6.5t0.5 -7v-9.5v-10.5v-246h124q39 0 65.5 30.5t26.5 71.5
v233h42q37 0 50 30q14 33 -21 70z" />
    <glyph glyph-name="add30" unicode="&#xe62a;" 
d="M960 364h-384v384q0 27 -18.5 45.5t-45.5 18.5t-45.5 -18.5t-18.5 -45.5v-384h-384q-27 0 -45.5 -18.5t-18.5 -45.5t18.5 -45.5t45.5 -18.5h384v-384q0 -27 18.5 -45.5t45.5 -18.5t45.5 18.5t18.5 45.5v384h384q27 0 45.5 18.5t18.5 45.5t-18.5 45.5t-45.5 18.5z" />
    <glyph glyph-name="erweima" unicode="&#xe61d;" 
d="M90 528h27v-27h-27v27zM117 447h27v-27h-27v27zM117 365h27v-81h-27v81zM225 392h-27h-27v-54h27h27v54zM198 311h27v-27h-27v27zM225 474h-27v27h-27h-27h-27v-27h27v-27h27v-27h27v27h27v-27h27v27h27v27h-27h-27zM198 609h27v81h-27h-27h-27v-81h27h27zM144 555h27h27
h27h27h27v189h-27h-27h-27h-27h-27h-27h-27v-189h27h27zM117 717h27h27h27h27h27v-135h-27h-27h-27h-27h-27v135zM252 528h27v-27h-27v27zM252 420v-28h27h27v55h-27v-27h-27zM252 365h27v-27h-27v27zM171 203h-27v-81h27h27h27v81h-27h-27zM225 257h-27h-27h-27h-27h-27
v-189h27h27h27h27h27h27h27v189h-27h-27zM252 95h-27h-27h-27h-27h-27v135h27h27h27h27h27v-135zM306 311h-27h-27v-27h27h27v27zM685 609h27v81h-27h-27h-27v-81h27h27zM631 555h27h27h27h27h27v189h-27h-27h-27h-27h-27h-27h-27v-189h27h27zM604 717h27h27h27h27h27v-135
h-27h-27h-27h-27h-27v135zM306 582v-81h-27v-27h27h27v108h-27zM306 284h27v-27h-27v27zM306 95h27v-27h-27v27zM360 501h27v-27h-27v27zM387 149v27h-27v27h27q-7 27 -7 54h-20v-27h-27v-108h27v27h27zM333 284h27h21q1 16 6 35v73h27v82h-27v-27h-27v27h-27v-54h27v-28
h-27v-27h27v-27h-27v27h-27v-54h27v-27zM387 202v-26h9q-5 12 -9 26zM414 501h27v-27h-27v27zM426 122h-12v-27h-27v27h-27v-54h27h27h27h27v11q-14 11 -27 25q-8 9 -15 18zM333 636h27v-27h-27v27zM360 663h27v-27h-27v27zM414 555h-27v27h27v54h-27v-27h-27v-81h27v-27h27
v54zM414 582h27v-27h-27v27zM441 555h27v-27h-27v27zM495 474v-14q14 8 27 14v0v54h-27h-27v-54h27zM333 717h-27v-81h27v54v27zM414 717v27h-27h-27v-54h27v27h27zM414 636h27v81h-27v-27h-27v-27h27v-27zM468 636h-27v-54h27v-27h27v54v54v27h-27v-54zM495 717v-27h27v54
h-27h-27h-27v-27h27h27zM522 636h27v54h-27v-27v-27zM522 609h27v-81h-27v81zM577 501h27v27h-27h-28v-27h28zM610 491q9 0 21 -1q13 -2 27 -4q12 -3 27 -8q7 -3 11 -4h16v-7q15 -8 27 -16q13 -9 27 -22v45h-27v54h-27h-27h-27v-27h-27h-27v-11q1 0 3 0.5t3 0.5zM631 176v0
v0v0zM928 -78l-145 193h-10l-7 -7l-4 -4l-15 21q9 10 19 23q36 51 36 113q0 76 -52 131q-5 6 -11 11q-25 23 -54 35q-12 5 -27 9t-27 5q-11 1 -21 1h-3.5h-2.5q-14 0 -27 -3q-8 -1 -17 -3q-6 -2 -11 -3q-13 -5 -27 -12t-27 -17q-14 -10 -27 -24q-16 -17 -27 -37
q-4 -7 -8 -16q-11 -25 -14 -54q-2 -13 -2 -23v-2v-2q0 -13 3 -27q4 -28 17 -54q3 -7 4 -9q11 -20 27 -37l8 -8q9 -8 19 -16q8 -6 17 -11q5 -4 10 -6q14 -7 27 -11q13 -5 28 -7q17 -3 33 -3q24 0 48 6q14 4 27 9q7 3 12 6l19 -22l-11 -12v-5q142 -179 151 -188q2 -2 4 -3
l2 -1t3 -1h2q2 -1 3 -1h2h4v0h0.5h0.5v0h2h2h0.5h0.5h1.5h0.5h1q29 17 43 31q6 8 6 15.5t-3 13.5zM712 189q-5 -7 -11 -13q-7 -8 -16 -15t-20 -12q-16 -8 -34 -11q-12 -2 -21 -2h-6q-26 1 -50 13q-4 2 -5 2q-14 9 -27 21q-14 13 -23 31l-4 8q-9 22 -10 46v2v2q0 11 2 23
q3 14 8 26l0.5 0.5l0.5 0.5q10 22 26 38q9 9 21 16q4 3 6 5q25 13 55 15h6q9 0 21 -2q25 -4 46 -18q3 -2 8 -5q12 -10 22 -22q2 -3 5 -6q22 -32 22 -71.5t-22 -71.5z" />
    <glyph glyph-name="mima" unicode="&#xe648;" 
d="M648 790h-271q-31 0 -53 -22t-22 -54v-270q0 -32 22 -54t53 -22h46v-541h53h67h125v73h-125v107h125v60h-125v301h105q31 0 53.5 22t22.5 54v270q0 32 -22.5 54t-53.5 22v0zM603 489h-180v180h180v-180v0zM603 489z" />
    <glyph glyph-name="bianji" unicode="&#xe602;" 
d="M1009 412l-59 -57l-159 159l58 57q13 13 31 14.5t30 -9.5l105 -103q11 -11 9 -29.5t-15 -31.5v0v0v0zM763 487l161 -157l-383 -378q-6 -6 -14 -8q-1 0 -3 -1l-200 -62q-10 -3 -15 3q-6 6 -3 15l64 196q0 2 1 3q2 12 9 15l73 67h-243q-7 0 -13 7t-6 14t6 14t13 7h281
l272 265v0v0zM491 -35l-98 97l-27 -82l42 -42l83 27v0v0zM758 425q-4 4 -10.5 4t-10.5 -4l-300 -294q-5 -4 -5 -10.5t5 -10.5q4 -3 10 -3t10 3l299 295q11 8 2 20v0v0v0zM90 -149q-21 0 -21 14v801q0 5 1 8.5t4.5 5t4.5 1.5h7.5h8.5h69v-27q0 -7 7.5 -13t15.5 -6t15.5 6
t7.5 13v27h104v-27q0 -7 7 -13t16 -6q8 0 15.5 6t7.5 13v27h95v-27q0 -7 7 -13t16 -6q8 0 15 6t7 13v27h95v-27q0 -7 7.5 -13t15.5 -6t15.5 6t7.5 13v27h80q16 0 16 -15v-132l59 57v75q0 31 -21.5 51.5t-53.5 20.5h-81v49q0 8 -7 13.5t-16 5.5q-8 0 -15.5 -5.5t-7.5 -13.5
v-49h-95v49q0 8 -7 13.5t-16 5.5q-8 0 -15.5 -5.5t-7.5 -13.5v-49h-95v49q0 8 -7 13.5t-15 5.5t-15.5 -5.5t-7.5 -13.5v-49h-104v49q0 8 -7 13.5t-16 5.5q-8 0 -15.5 -5.5t-7.5 -13.5v-49h-68q-42 0 -63.5 -20t-21.5 -52v-800q0 -31 24 -51.5t57 -20.5h629q32 0 53 20.5
t21 51.5v276l-58 -57v-220q0 -14 -16 -14h-630zM588 521h-379q-7 0 -12.5 -7t-5.5 -14q0 -8 5.5 -15t12.5 -7h379q7 0 12.5 7t5.5 14.5t-5.5 14.5t-12.5 7v0v0v0zM588 375h-379q-7 0 -12.5 -7t-5.5 -14q0 -8 5 -15t13 -7h379q7 0 12.5 7.5t5.5 14.5t-5.5 14t-12.5 7v0v0v0z
M588 375z" />
    <glyph glyph-name="zhuanhuan" unicode="&#xe6e5;" 
d="M512 -121q-114 0 -211 56.5t-153.5 153.5t-56.5 211t56.5 211t153.5 153.5t211 56.5t211 -56.5t153.5 -153.5t56.5 -211t-56.5 -211t-153.5 -153.5t-211 -56.5zM512 675q-102 0 -188.5 -50t-136.5 -136.5t-50 -188.5t50 -188.5t136.5 -136.5t188.5 -50t188.5 50
t136.5 136.5t50 188.5t-50 188.5t-136.5 136.5t-188.5 50zM583 113q-6 -7 -15.5 -7t-16 6.5t-6.5 16t6 16.5l77 76h-287q-9 0 -15.5 6.5t-6.5 16t6.5 16t15.5 6.5h340q1 0 5 -1q8 -1 13 -6q7 -7 7 -16.5t-7 -15.5zM683 334h-342q-1 0 -5 1q-8 2 -13 6q-7 7 -7 16.5t7 16.5
l116 115q7 6 16.5 6t16 -6.5t6.5 -16t-6 -16.5l-78 -76h289q9 0 15.5 -7t6.5 -16.5t-6.5 -16t-15.5 -6.5z" />
    <glyph glyph-name="xitongjiankong" unicode="&#xe62b;" horiz-adv-x="1756" 
d="M976 242l-100 256l-108 -204l-61 62l-103 -64l29 -16l66 41l79 -82l92 173l102 -262l86 183l36 -75l38 6l-73 157zM1278 30v544q0 15 -9.5 25.5t-23.5 10.5h-735q-14 0 -23.5 -10.5t-9.5 -25.5v-544h-108v-30q0 -15 9.5 -25.5t23.5 -10.5h955q14 0 23.5 10.5t9.5 25.5v30
h-112zM947 1h-135v23h135v-23zM1224 59h-693v491h693v-491zM1224 59z" />
    <glyph glyph-name="shanchu1" unicode="&#xe63e;" 
d="M227 -38q0 -45 31.5 -77.5t75.5 -32.5h356q44 0 75.5 32.5t31.5 77.5l72 576h-714zM624 426h70v-462h-70v462zM470 426h84v-462h-84v462v0zM330 426h70v-462h-70v462zM851 678h-232q-1 3 -2 7.5t-5 17t-8 21.5t-9.5 16.5t-11.5 7.5h-142q-9 0 -18 -17.5t-13 -34.5l-5 -18
h-232q-22 0 -37.5 -16.5t-15.5 -38.5v-57h784v57q0 22 -15.5 38.5t-37.5 16.5z" />
    <glyph glyph-name="x" unicode="&#xe60c;" 
d="M302.5 90.5q-7.5 7.5 -7.5 18.5t8 19l381 381q8 8 19 8t18.5 -7.5t7.5 -18.5t-8 -19l-381 -381q-8 -8 -19 -8t-18.5 7.5zM302.5 509.5q7.5 7.5 18.5 7.5t19 -8l381 -381q8 -8 8 -19t-7.5 -18.5t-18.5 -7.5t-19 8l-381 381q-8 8 -8 19t7.5 18.5z" />
    <glyph glyph-name="shouye" unicode="&#xe616;" 
d="M404 -148zM953 252l-427 427q-6 6 -15 6t-15 -6l-320 -321v0l-107 -106q-6 -7 -6 -15.5t6 -15t15 -6.5t15 6l71 71v-355q0 -35 25 -60t60 -25h149q9 0 15.5 6t6.5 15v193h170v-163v-51h22h73h76q36 0 61 25t25 60v235v120l70 -71q6 -6 15 -6t15 6.5t6 15t-6 15.5z" />
    <glyph glyph-name="jifenshangcheng" unicode="&#xe63c;" 
d="M789 234q0 9 7 16t16.5 7t16.5 -7t7 -16v-145q0 -10 -7 -17t-16 -7v0h-235q-9 0 -16 7t-7 17v0v145q0 9 7 16t16.5 7t16.5 -7t7 -16v-122h187v122v0zM894 249v0v-348h-764v348q0 9 -7 16t-16.5 7t-16.5 -7t-7 -16v-371v0q0 -11 7 -18.5t17 -7.5h808h2q10 0 17 7t7 16v374
q0 9 -7 16t-16.5 7t-16.5 -7t-7 -16v0zM130 648v0q0 -10 -7 -17t-16.5 -7t-16.5 7t-7 17v74q0 11 7 18.5t17 7.5v0h810q10 0 17 -7t7 -16v0v-75q0 -10 -7 -17t-16.5 -7t-16.5 7t-7 17v49h-764v-51v0zM0 590v0q0 16 11 27.5t27 11.5t27.5 -11.5t11.5 -27.5v-241
q0 -16 -11.5 -27t-27.5 -11t-27 11t-11 27v241v0zM134 590v0v-241q0 -16 11.5 -27t27.5 -11t27 11t11 27v241q0 16 -11 27.5t-27 11.5q-15 0 -27 -11.5t-12 -27.5v0zM271 590v0v-241q0 -16 11 -27t27 -11t27.5 11t11.5 27v241q0 16 -11.5 27.5t-27.5 11.5t-27 -11.5
t-11 -27.5v0zM405 590v0v-241q0 -16 11.5 -27t27.5 -11t27 11t11 27v241q0 16 -11 27.5t-27 11.5t-27.5 -11.5t-11.5 -27.5v0zM540 590v0v-241q0 -16 11 -27t27 -11t27.5 11t11.5 27v241q0 16 -11.5 27.5t-27.5 11.5q-15 0 -26.5 -11.5t-11.5 -27.5v0zM674 590v0v-241
q0 -16 11.5 -27t29.5 -11q16 0 27 11t11 27v241q0 16 -11 27.5t-27 11.5q-17 0 -29 -11.5t-12 -27.5v0zM811 590v0v-241q0 -16 11 -27t27 -11t28.5 11t12.5 27v241q0 16 -11.5 27.5t-29.5 11.5q-16 0 -27 -11.5t-11 -27.5v0zM945 590v0q0 16 11 27.5t27 11.5t27.5 -11.5
t11.5 -27.5v-241q0 -16 -11.5 -27t-27.5 -11t-27 11t-11 27v241v0zM427 234v0q0 9 7 16t16.5 7t16.5 -7t7 -16v-271q0 -10 -7 -17t-17 -7v0h-237q-9 0 -16 7t-7 17v0v271q0 9 7 16t16.5 7t16.5 -7t7 -16v-248h190v248v0z" />
    <glyph glyph-name="yonghuming" unicode="&#xe638;" 
d="M654 -154h-284q-70 0 -120 50t-50 121v113q0 55 32 98.5t83 61.5q-58 78 -58 180q0 117 74.5 200.5t180.5 83.5t180.5 -83.5t74.5 -200.5q0 -102 -58 -180q51 -18 83 -61.5t32 -98.5v-113q0 -71 -50 -121t-120 -50zM710 470q0 94 -58 160.5t-140 66.5t-140 -66.5
t-58 -160.5t58 -160.5t140 -66.5t140 66.5t58 160.5zM767 116q0 44 -30 78.5t-77 45.5q-67 -53 -148 -53t-148 53q-47 -11 -77 -45.5t-30 -78.5v-85q0 -53 40.5 -90.5t98.5 -37.5h232q58 0 98.5 37.5t40.5 90.5v85z" />
    <glyph glyph-name="qiandao1" unicode="&#xe622;" horiz-adv-x="1176" 
d="M944 543l-1 1q-66 116 -184 187.5t-256 71.5q-103 0 -196 -40t-160 -107.5t-107 -160.5t-40 -195q0 -179 112 -316.5t284 -174.5q52 -12 107 -12v0q11 0 19.5 8.5t8.5 20.5t-8.5 20t-19.5 8q-49 0 -95 10q-153 34 -252 156t-99 280q0 91 35 173.5t95 142t142.5 95
t173.5 35.5q121 0 227.5 -64t165.5 -170q0 -1 1 -1q8 -12 23 -12q11 0 19.5 8.5t8.5 20.5q0 8 -4 15v0zM716 -37l324 445q13 19 36.5 22.5t42.5 -10.5l15 -11q19 -14 23 -37t-10 -42l-323 -445zM705 -53l108 -78l-130 -65zM293.5 385q27.5 0 47 19.5t19.5 47t-19.5 47
t-47 19.5t-46.5 -19.5t-19 -47t19 -47t46.5 -19.5zM692.5 385q27.5 0 47 19.5t19.5 47t-19.5 47t-47 19.5t-47 -19.5t-19.5 -47t19.5 -47t47 -19.5zM238 185q26 -88 99.5 -143t165.5 -55q91 0 164.5 55t98.5 142q5 15 -2.5 29t-22.5 18.5t-29 -3t-18 -22.5
q-19 -64 -72 -103.5t-119.5 -39.5t-119.5 40t-72 103q-4 15 -18 22.5t-29 3.5t-22.5 -18t-3.5 -29z" />
    <glyph glyph-name="qiandao" unicode="&#xe60f;" 
d="M514 783q100 0 190.5 -38.5t156.5 -104.5t104.5 -156.5t38.5 -190.5t-38.5 -191t-104.5 -156.5t-156.5 -104.5t-190.5 -39t-191 39t-156.5 104.5t-104.5 156.5t-39 191t39 190.5t104.5 156.5t156.5 104.5t191 38.5zM414 261l-1 -1l-28 -100q-2 -10 5 -17q5 -5 12 -5
q2 0 4 1l100 27v0q2 0 3 1l266 266q12 12 12 30q0 21 -16 36l-25 26q-15 15 -36 15q-18 0 -31 -12l-265 -266v-0.5v-0.5zM749 459l-27 -27l-43 44l26 26q8 8 17 -1l25 -25q4 -5 4 -10q0 -4 -2 -7zM461 257l191 192l43 -44l-191 -191l-43 43v0zM426 179l14 51l37 -37l-51 -14
v0zM765 354q-7 0 -12.5 -5.5t-5.5 -13.5v-247q0 -10 -7 -17t-16 -7h-419q-10 0 -17 7t-7 17v404q0 9 7 16t17 7h269q8 0 13.5 5.5t5.5 13t-5.5 13t-13.5 5.5h-272q-24 0 -41 -17t-17 -41v-409q0 -24 17 -41t41 -17h424q24 0 41 17t17 41v250q0 8 -5.5 13.5t-13.5 5.5v0z" />
    <glyph glyph-name="wink2" unicode="&#xe7b0;" 
d="M512 800q-139 0 -257 -68.5t-186.5 -186.5t-68.5 -257t68.5 -257t186.5 -186.5t257 -68.5t257 68.5t186.5 186.5t68.5 257t-68.5 257t-186.5 186.5t-257 68.5zM704 544q27 0 45.5 -28t18.5 -68t-18.5 -68t-45.5 -28t-45.5 28t-18.5 68t18.5 68t45.5 28zM352 488
q45 0 73.5 -15.5t28.5 -41.5q0 -2 1 -14t1 -22.5t-2 -13.5q-11 19 -39 30.5t-63 11.5t-63 -11.5t-39 -30.5q-2 3 -2 13.5t1 22.5t1 14q0 26 28.5 41.5t73.5 15.5v0zM500 -32q-88 0 -162.5 43.5t-120.5 117.5q52 -40 140.5 -50t185.5 10q106 21 182.5 67.5t105.5 109.5
q-16 -127 -110 -212.5t-221 -85.5v0z" />
    <glyph glyph-name="tishi" unicode="&#xe600;" 
d="M512 812q-104 0 -199 -40.5t-163.5 -109t-109 -163.5t-40.5 -199t40.5 -199t109 -163.5t163.5 -109t199 -40.5t199 40.5t163.5 109t109 163.5t40.5 199t-40.5 199t-109 163.5t-163.5 109t-199 40.5zM511.5 -135q-88.5 0 -169 34.5t-138.5 92.5t-92.5 138.5t-34.5 169.5
t34.5 169.5t92.5 138.5t138.5 92.5t169.5 34.5t169.5 -34.5t138.5 -92.5t92.5 -138.5t34.5 -169t-34.5 -169.5t-92.5 -139t-139 -92.5t-169.5 -34.5zM610 165q-5 0 -21.5 -18t-35.5 -36t-31 -18q-10 0 -10 12t15 47l63 165q18 41 11 64t-21.5 32t-35.5 9q-71 0 -133 -57
q-10 -10 -25 -34.5t-15 -35.5q0 -4 3.5 -8t7.5 -4q7 0 20 20.5t30 41.5t31 21q6 0 9 -6t0 -17l-62 -149l-8 -16t-12.5 -26.5t-11 -30t-5.5 -31.5q0 -26 16 -46.5t38 -20.5q32 0 68 17t63 39t45 43t18 31q0 5 -3.5 8.5t-7.5 3.5zM592 577q-29 0 -50.5 -20t-21.5 -47
q0 -26 16.5 -42t43.5 -16q30 0 51.5 19.5t21.5 48.5q0 25 -17 41t-44 16z" />
    <glyph glyph-name="shezhi" unicode="&#xe617;" 
d="M882 183h-19q-9 -24 -21 -48l14 -14q23 -23 23 -55t-23 -55l-55 -55q-23 -23 -55 -23t-55 23l-14 14q-24 -13 -48 -21v-19q0 -32 -23 -55t-55 -23h-78q-32 0 -55 23t-23 55v19q-24 8 -48 21l-14 -14q-23 -23 -55 -23t-55 23l-55 55q-23 23 -23 55t23 55l14 14
q-13 24 -21 48h-19q-32 0 -55 23t-23 55v78q0 32 23 55t55 23h19q8 24 21 48l-14 14q-23 23 -23 55t23 55l55 55q23 23 55 23t55 -23l14 -14q24 13 48 21v19q0 32 23 55t55 23h78q32 0 55 -23t23 -55v-19q24 -8 48 -21l14 14q23 23 55 23t55 -23l55 -55q23 -23 23 -55
t-23 -55l-14 -14q12 -24 21 -48h19q32 0 55 -23t23 -55v-78q0 -32 -23 -55t-55 -23zM916 338q0 16 -11.5 27.5t-27.5 11.5h-8h-39q-12 48 -40 93l29 28l6 6q11 11 11 27t-11 27l-55 55q-11 11 -27 11t-27 -11l-6 -6v0l-28 -29q-45 28 -93 39v40v8q0 16 -11.5 27.5
t-27.5 11.5h-76q-16 0 -27.5 -11.5t-11.5 -27.5v-8v-40q-48 -11 -93 -39l-28 29l-6 6q-11 11 -27 11t-27 -11l-55 -55q-11 -11 -11 -27t11 -27l6 -6l29 -28q-28 -45 -39 -93h-40h-8q-16 0 -27.5 -11.5t-11.5 -27.5v-76q0 -16 11.5 -27.5t27.5 -11.5h8h40q11 -48 39 -93
l-29 -28l-6 -6q-11 -11 -11 -27t11 -27l55 -55q11 -11 27 -11t27 11l34 35q45 -28 93 -39v-40v-8q0 -16 11.5 -27.5t27.5 -11.5h76q16 0 27.5 11.5t11.5 27.5v8v40q48 11 93 39l34 -35q11 -11 27 -11t27 11l55 55q11 11 11 27t-11 27l-6 6l-29 28q28 45 40 93h39h8
q16 0 27.5 11.5t11.5 27.5v76v0zM512 105q-81 0 -138 57t-57 138t57 138t138 57t138 -57t57 -138t-57 -138t-138 -57zM512 450q-62 0 -106 -44t-44 -106t44 -106t106 -44t106 44t44 106t-44 106t-106 44z" />
    <glyph glyph-name="shanchu" unicode="&#xe603;" 
d="M782 571.5q55 -55.5 84 -126.5q29 -70 28 -145q1 -75 -28 -144q-29 -72 -84 -127t-127 -84q-69 -28 -144 -28t-144 28q-72 29 -127 84t-84 127q-28 69 -28 144t28 145q29 71 84 126.5t127 84.5q69 28 144 28t144 -28q72 -29 127 -84.5zM828 617q-65 64 -148.5 97.5
t-168.5 33.5t-168.5 -33.5t-147.5 -97.5q-86 -86 -116.5 -201.5t0 -230.5t116.5 -201q64 -64 147.5 -97.5t168.5 -33.5t168.5 33.5t148.5 97.5q85 86 115.5 201t0 230.5t-115.5 201.5v0v0zM557 299l160 159l-45 45l-160 -159l-159 159l-46 -45l160 -160l-157 -156l45 -46
l157 157l157 -157l45 45zM714 141z" />
    <glyph glyph-name="tuichu" unicode="&#xe888;" 
d="M576 -50h-461v700h461v-188h51v161q0 32 -23 55t-56 23h-406q-32 0 -55 -23t-23 -55v-646q0 -32 23 -55t55 -23h406q33 0 56 23t23 55v161h-51v-188zM755 505l-36 -36l143 -143h-354v-52h354l-143 -143l36 -36l205 205z" />
    <glyph glyph-name="shanchu2" unicode="&#xe604;" 
d="M501 786q-109 0 -201 -54t-146 -146t-54 -201t54 -201t146 -146t201 -54t201 54t146 146t54 201t-54 201t-146 146t-201 54zM501 24q-98 0 -181 48.5t-131.5 131.5t-48.5 181t48.5 181t131.5 131.5t181 48.5t181 -48.5t131.5 -131.5t48.5 -181t-48.5 -181t-131.5 -131.5
t-181 -48.5zM739 405h-476q-8 0 -14 -6t-6 -14t6 -14t14 -6h476q8 0 14 6t6 14t-6 14t-14 6z" />
    <glyph glyph-name="delete" unicode="&#xe605;" 
d="M739 24h-452q-20 0 -34.5 14.5t-14.5 33.5v418q0 20 14.5 34.5t34.5 14.5h452q20 0 34.5 -14.5t14.5 -34.5v-418q0 -19 -14.5 -33.5t-34.5 -14.5zM287 495q-7 0 -7 -5v-418q0 -4 7 -4h452q7 0 7 4v418q0 5 -7 5h-452zM832 496h-640q-21 0 -35.5 13.5t-14.5 31.5v61
q0 19 14.5 32t35.5 13h640q21 0 35.5 -13t14.5 -32v-61q0 -18 -14.5 -31.5t-35.5 -13.5zM185 541q1 -3 7 -3h640q6 0 7 3v61q-1 3 -7 3h-640q-6 0 -7 -3v-61zM601 605h-175q-20 0 -34.5 13.5t-14.5 31.5v11q0 19 14.5 32t34.5 13h175q20 0 34.5 -13t14.5 -32v-11
q0 -18 -14.5 -31.5t-34.5 -13.5zM419 650q2 -2 7 -2h175q5 0 7 2v11q-2 3 -7 3h-175q-5 0 -7 -3v-11zM404 431h-30q-5 0 -9 -4t-4 -9v-273q0 -5 4 -9t9 -4h30q6 0 9.5 4t3.5 9v273q0 5 -3.5 9t-9.5 4zM660 431h-31q-5 0 -9 -4t-4 -9v-273q0 -5 4 -9t9 -4h31q5 0 9 4t4 9v273
q0 5 -4 9t-9 4zM532 431h-30q-6 0 -9.5 -4t-3.5 -9v-273q0 -5 3.5 -9t9.5 -4h30q5 0 9 4t4 9v273q0 5 -4 9t-9 4z" />
    <glyph glyph-name="shouye1" unicode="&#xe612;" 
d="M406 794q-96 -79 -162.5 -142t-148.5 -153q-13 -17 -17 -42t1 -43t16 -18h103v-257q0 -103 45 -103h161v257h206v-257h148q25 0 41 25t16 78v257h103q15 0 22 19t1 44t-23 40q-132 134 -324 292q-43 33 -76 42.5t-58.5 -0.5t-53.5 -39z" />
    <glyph glyph-name="icon14" unicode="&#xe625;" horiz-adv-x="1025" 
d="M512 819q-89 0 -169.5 -34.5t-138.5 -92.5t-92.5 -138.5t-34.5 -169.5t34.5 -169.5t92.5 -138.5t138.5 -92.5t169.5 -34.5t169.5 34.5t138.5 92.5t92.5 138.5t34.5 169.5t-34.5 169.5t-92.5 138.5t-138.5 92.5t-169.5 34.5zM475 119q-4 5 -12 14t-34.5 36.5t-56.5 52.5
t-77.5 56t-96.5 55l111 109q5 -4 15 -11t35.5 -28.5t46.5 -42.5t41.5 -50.5t27.5 -55.5q5 10 14 27.5t39 65t63 87t83.5 81.5t102.5 61l68 -140q-5 0 -75 -46q-191 -125 -295 -271z" />
    <glyph glyph-name="fuwu1" unicode="&#xe634;" 
d="M275 813q-83 0 -142 -59t-59 -142t59 -142t142 -59h201v201q0 83 -59 142t-142 59v0zM414 473h-139q-57 0 -98 41t-41 98.5t41 98t98.5 40.5t98 -40.5t40.5 -98.5v-139v0zM940 612q0 83 -59 142t-142 59t-142 -59t-59 -142v-201h201q83 0 142 59t59 142v0zM600 612
q0 58 40.5 98.5t98 40.5t98.5 -40.5t41 -98t-41 -98.5t-98 -41h-139v139v0zM74 149q0 -84 59 -142.5t142 -58.5t142 58.5t59 142.5v200h-201q-83 0 -142 -58.5t-59 -141.5v0zM414 149q0 -58 -40.5 -99t-98 -41t-98.5 41t-41 98.5t41 98.5t98 41h139v-139v0zM739 349h-201
v-200q0 -84 59 -142.5t142 -58.5t142 58.5t59 142t-59 142t-142 58.5v0zM739 9q-58 0 -98.5 41t-40.5 99v139h139q57 0 98 -41t41 -98.5t-41 -98.5t-98 -41v0zM739 9z" />
    <glyph glyph-name="xiangyou" unicode="&#xe691;" 
d="M316.5 7q-6.5 6 -6.5 15t7 16l2 2v0l342 342l-342 342v0q-1 1 -2 3q-7 6 -7 15t6.5 15t15.5 6t15 -6l2 -2h1l357 -358v0v0v0v0q6 -6 6 -15t-6 -15v0l-357 -358l-1 1q-1 -2 -2 -3q-6 -6 -15 -6t-15.5 6z" />
    <glyph glyph-name="guanbi" unicode="&#xe611;" 
d="M554 387l136 136l-45 45l-136 -136l-136 136l-45 -45l136 -136l-136 -136l45 -45l136 136l136 -136l45 45z" />
    <glyph glyph-name="dengpao" unicode="&#xe624;" 
d="M487 -1q-9 0 -14.5 5.5t-5.5 13.5t5.5 14t14.5 6h51q9 0 14.5 -6t5.5 -14t-5.5 -13.5t-14.5 -5.5h-51zM434 77q-9 0 -14.5 5.5t-5.5 14t5.5 14t14.5 5.5h156q8 0 13.5 -5.5t5.5 -14t-5.5 -14t-13.5 -5.5h-156zM512 155q-94 0 -160.5 66.5t-66.5 160.5t66.5 160.5
t160.5 66.5t160.5 -66.5t66.5 -160.5t-66.5 -160.5t-160.5 -66.5zM512 570q-78 0 -133 -55.5t-55 -132.5q0 -78 55.5 -134t134 -56t133 55.5t54.5 134.5q0 77 -55.5 132.5t-133.5 55.5zM824 401q-8 0 -13.5 6t-5.5 14t5.5 14t13.5 6h52q8 0 13.5 -6t5.5 -14t-5.5 -14
t-13.5 -6h-52zM148 401q-8 0 -14 6t-6 14t6 14t14 6h52q8 0 13.5 -6t5.5 -14t-5.5 -14t-13.5 -6h-52zM742 579q-8 0 -14 5q-5 5 -5 13t5 14l36 36q6 5 14.5 5t13.5 -5t5 -13t-5 -14l-38 -36q-3 -5 -12 -5zM283 579q-8 0 -14 5l-36 36q-5 6 -5 14t5 13q6 5 14 5t14 -5l36 -36
q6 -6 6 -14.5t-6 -13.5q-6 -4 -14 -4zM511.5 675q-8.5 0 -14 5.5t-5.5 13.5v52q0 8 5.5 13.5t14 5.5t14 -5.5t5.5 -13.5v-52q0 -8 -5.5 -13.5t-14 -5.5z" />
    <glyph glyph-name="shuaxin1" unicode="&#xe657;" 
d="M915 510h-42h-23h-116q-18 0 -30 12.5t-12 29.5t12 29.5t30 12.5h72q-50 71 -128 112.5t-168 41.5q-99 0 -182.5 -49t-132.5 -132.5t-49 -182.5q0 -17 -12 -29.5t-29.5 -12.5t-30 12.5t-12.5 29.5v0q0 91 35.5 174t95.5 143t143 95.5t174 35.5q110 0 205.5 -50.5
t157.5 -137.5v76q0 17 12.5 29.5t30 12.5t29.5 -12.5t12 -29.5v-168q0 -17 -12 -29.5t-30 -12.5zM104 258h182q18 0 30 -12t12 -29.5t-12 -30t-30 -12.5h-73q51 -71 129 -112t168 -41q99 0 182.5 48.5t132 132t48.5 182.5q0 17 12.5 29.5t30 12.5t29.5 -12.5t12 -29.5v0
q0 -91 -35.5 -174t-95 -142.5t-142.5 -95t-174 -35.5q-111 0 -206.5 50.5t-157.5 137.5v-76q0 -18 -12 -30t-29.5 -12t-30 12t-12.5 30v167q0 18 12.5 30t29.5 12z" />
    <glyph glyph-name="yue" unicode="&#xe607;" 
d="M512 -128q-237 0 -345.5 85.5t-108.5 263.5q0 146 98.5 280t238.5 183h234q140 -49 238.5 -183t98.5 -279q0 -179 -108.5 -264.5t-345.5 -85.5v0zM638 258v0q16 1 27 12t11 27t-11 27.5t-27 11.5v0h-78v1v1l91 94q18 20 -7 45q-12 12 -27.5 13.5t-25.5 -7.5l-78 -84
l-85 85q-8 8 -21.5 5.5t-25 -13.5t-13.5 -25t6 -22l87 -86q-3 -4 -4 -7h-70v0v0q-16 0 -27.5 -11.5t-11.5 -27.5t11.5 -27.5t27.5 -11.5v0v0h77v-38h-77v0v0q-16 0 -27.5 -11.5t-11.5 -27.5t11.5 -27t27.5 -11v0v0h77v-39h1q-1 -5 -1 -10q0 -20 14 -34t34 -14t34 14t14 34
q0 5 -1 10h1v39h78q16 0 27 11t11 27t-11 27.5t-27 11.5v0h-78v38h78v0zM695 838l-8 -10v-0.5v-0.5l-69 -86h-232l-68 86l-0.5 1l-0.5 1l-8 9l2 3q-2 6 -2 7q0 20 19 27l1 2q95 19 173 19q37 0 80.5 -5t68.5 -9l25 -5l1 -2q19 -7 19 -27q0 -2 -2 -7l1 -3v0z" />
    <glyph glyph-name="jiantou" unicode="&#xe61b;" 
d="M666 394l-238 238l-29 -30l208 -208l-208 -209l29 -30l209 209v0z" />
    <glyph glyph-name="nvhai" unicode="&#xe613;" 
d="M336 273q0 -14 9 -23q10 -10 23 -10q14 0 23 10q9 9 9 23q0 13 -9 22q-10 10 -23 10t-23 -10q-9 -9 -9 -22v0zM336 273zM605 273q0 -14 10 -23q9 -10 22 -10q14 0 23 10q10 9 10 23q0 13 -10 22q-9 10 -23 10q-13 0 -22 -10q-10 -9 -10 -22v0zM605 273zM837 370v13v7
q1 10 -3 21q-5 44 -21.5 84t-44 77t-72.5 64t-102 39q3 10 3 20q0 32 -25 55t-60.5 23t-60.5 -23t-25 -55q0 -11 3 -20q-64 -13 -112.5 -46t-76 -76.5t-41 -90t-13.5 -93.5q-40 -30 -40 -79q0 -31 17 -56t45 -36q28 -178 44 -165q6 5 6 27q0 5 -2.5 35.5t-3.5 54.5
q20 -38 50 -68q87 -87 209 -87t209 87q19 19 35 42q-3 -65 -3 -82q0 -18 11 -1q20 30 42 122q5 19 8 34q29 10 47 35.5t18 57.5q0 50 -41 80v0zM159 290q0 37 27 62q1 -3 1 -5v0q10 -80 18 -133q-21 11 -33.5 31.5t-12.5 44.5v0zM756 151q-37 -65 -102.5 -103.5
t-142.5 -38.5q-86 0 -156.5 48t-103.5 125q3 117 58 165q58 50 81 159q22 -97 88 -112q92 -22 172 -23h3q101 -1 109 -81q-1 0 -6 -139v0zM817 213q13 66 17 129q2 4 3 11q28 -25 28 -63q0 -25 -13.5 -45.5t-34.5 -31.5v0zM817 213z" />
    <glyph glyph-name="huiyuan" unicode="&#xe64b;" 
d="M489 365q56 27 90 80.5t34 117.5q0 92 -64.5 156.5t-156 64.5t-156 -64.5t-64.5 -156.5q0 -64 34 -117.5t90 -80.5q-97 -29 -161 -108.5t-72 -182.5q-1 -3 -1 -7q0 -7 5 -12.5t13 -5.5t13 5.5t5 12.5h1q7 116 91.5 196t201.5 80t201.5 -80t91.5 -196h1q0 -7 5.5 -12.5
t13 -5.5t13 5.5t5.5 12.5q0 4 -2 7q-7 103 -71.5 182.5t-160.5 108.5v0v0zM209 563q0 76 53.5 130t129.5 54t130 -54t54 -130t-54 -130t-130 -54t-129.5 54t-53.5 130v0v0zM887 74q-8 103 -72.5 182.5t-160.5 108.5q56 27 90 80.5t34 117.5q0 91 -64.5 156t-155.5 65
q-14 0 -30 -3q25 -15 45 -35q71 -6 119.5 -58.5t48.5 -124.5q0 -71 -48 -123.5t-119 -59.5q2 -4 2 -10l-0.5 -1.5l-0.5 -1.5q26 -15 47 -32q95 -21 158.5 -95t69.5 -173h1q0 -7 5.5 -12.5t13 -5.5t13 5.5t5.5 12.5q0 4 -1 7v0v0zM887 74z" />
    <glyph glyph-name="bianji1" unicode="&#xe67c;" 
d="M704 832v-64h-576v-768h640v320h64v-383h-768v895h640zM192 641h383v-65h-383v65zM192 513h383v-65h-383v65zM192 384h191v-64h-191v64zM192 257h191v-65h-191v65zM458 202l397 580l106 -73l-397 -579l-125 -70z" />
    <glyph glyph-name="yonghu" unicode="&#xe637;" 
d="M706 374q57 77 57 178q0 115 -73.5 197t-177.5 82t-177.5 -82t-73.5 -197q0 -101 57 -178q-50 -17 -81.5 -60t-31.5 -98v-111q0 -70 49 -119t118 -49h280q69 0 118 49t49 119v111q0 55 -31.5 98t-81.5 60zM316 551.5q0 92.5 57.5 158t138.5 65.5t138.5 -65.5t57.5 -158
t-57.5 -158t-138.5 -65.5t-138.5 65.5t-57.5 158zM763 119q0 -52 -40 -89t-97 -37h-228q-57 0 -97 37t-40 89v83q0 45 29.5 78.5t75.5 43.5q66 -52 146 -52t146 52q46 -10 75.5 -43.5t29.5 -78.5v-83z" />
    <glyph glyph-name="xiala1" unicode="&#xe636;" 
d="M678 486l-166 -179l-166 179l-39 -40l205 -216l205 216z" />
    <glyph glyph-name="houtui" unicode="&#xe639;" 
d="M589 121q-20 0 -33 16l-171 228q-8 11 -8 24.5t8 24.5l172 217q10 13 27 15t30 -8.5t15 -27t-9 -29.5l-152 -192l153 -203q10 -13 7.5 -30t-15.5 -27q-11 -8 -24 -8v0zM512 -63q-91 0 -174 35q-80 34 -142 96t-96 142q-35 83 -35 174t35 174q34 80 96 142t142 96
q83 35 174 35t174 -35q80 -34 142 -96t96 -142q35 -83 35 -174t-35 -174q-34 -80 -96 -142t-142 -96q-83 -35 -174 -35v0zM512 750q-99 0 -183.5 -49t-133.5 -133.5t-49 -183.5t49 -183.5t133.5 -133.5t183.5 -49t183.5 49t133.5 133.5t49 183.5t-49 183.5t-133.5 133.5
t-183.5 49v0zM512 750z" />
    <glyph glyph-name="weibiaoti202" unicode="&#xe620;" 
d="M870 566q-104 268 -378 262q-6 -1 -17 -2t-16 -2q-46 -7 -78 -20q-138 -52 -203 -182q-21 -42 -22 -58q-40 -10 -61 -23.5t-34 -43.5q-13 -39 -7 -75t32.5 -62t60.5 -27l25 -55q61 -99 205 -144q81 -22 174 -14t158 37q29 13 82 53q73 56 83 121q71 11 93 80
q18 60 -12.5 107t-84.5 48zM897 382q-4 -3 -11 -5t-11.5 -2.5t-15 -1.5t-13.5 -1q-37 -152 -223 -201q-75 -21 -150 -13t-137.5 34t-105.5 73.5t-54 106.5q-3 0 -13.5 1t-16 1.5t-12.5 2.5t-11 5q-32 20 -31 67.5t33 67.5q14 8 55 8q4 12 11.5 33.5t11.5 32.5
q17 40 61.5 90.5t79.5 60.5q2 -38 15.5 -75t33.5 -54q7 4 29 21v2q-14 21 -22 36t-14.5 39.5t-6.5 51.5q8 2 42 12.5t56 11.5q0 -83 21 -127l24 -43q2 0 2 -2q21 13 31 21q-4 7 -11 20.5t-12 20.5q-16 41 -16 110q18 2 37.5 -1.5t41 -10t32.5 -8.5q-10 -75 0 -104
q4 -9 11 -25t11 -25q1 0 2 -1t2 -1q21 13 29 17q0 7 -8.5 22t-9.5 21q-7 25 -2 78q7 -2 14.5 -6.5t18 -12t12.5 -8.5q51 -36 77 -78t56 -121q9 -1 23 -3l21 -3t15.5 -5t13.5 -11q22 -26 17 -65t-33 -54zM362 536q-2 -2 -6.5 -4.5t-7 -4t-5.5 -4t-5 -6.5q-13 -21 0.5 -45.5
t38.5 -19.5q16 3 24 17t6.5 29t-13.5 26.5t-32 11.5zM643 536q-3 -3 -7.5 -5.5t-8.5 -5t-6 -6.5q-14 -20 -2 -45.5t38 -19.5q16 3 24 16.5t7 28t-13 26t-32 11.5zM543 384h-117l-6 -6q-2 -5 -2 -9.5t1 -8.5t3.5 -8.5t4.5 -7t5.5 -6.5t3.5 -5q30 -37 78.5 -34t75.5 40
q17 22 12 45q-7 1 -17.5 1t-23 -0.5t-18.5 -0.5zM776 148q-1 -7 -3 -20t-3 -20q-11 -32 -38.5 -53t-63.5 -11l-50 25q-5 -7 -21.5 -35t-33.5 -39q-36 -21 -68.5 -13t-56 31.5t-32.5 53.5q-10 1 -32 -11t-32 -14q-40 -7 -68 28.5t-26 77.5q-25 17 -35 25q-9 -39 2.5 -77
t37.5 -61t61 -31.5t73 11.5q4 -4 12.5 -15t13 -16t12.5 -12.5t16.5 -12.5t19.5 -9q52 -21 105.5 1.5t68.5 63.5q34 -11 41 -12q4 -3 16 -1t14.5 2t13.5 3.5l11 3.5q45 19 66.5 61t15.5 103q-4 -3 -17 -12.5t-20 -14.5z" />
    <glyph glyph-name="xiala" unicode="&#xe647;" 
d="M849 817q12 14 30.5 15t32 -11.5t14.5 -31.5t-11 -33l-366 -376h-1v0v0q-12 -14 -30 -14.5t-32 11.5v0v0v1l-1 1h-1l-1 1v0v0v0v1l-366 375q-12 14 -11.5 33t14 31.5t32 11.5t30.5 -15l334 -338l333 338v0zM849 817zM849 454q12 14 30.5 15t32 -11.5t14.5 -31.5t-11 -33
l-366 -376h-1v0v0q-12 -14 -30 -15q-19 0 -32 12v0v0v0l-1 2h-1l-1 1v0v0v0v1l-366 375q-12 14 -11.5 33t14 31.5t32 11.5t30.5 -15l334 -338l333 338v0zM849 454z" />
    <glyph glyph-name="weibiaoti1" unicode="&#xe61f;" 
d="M508 -91q-115 5 -216 65q-12 8 -16 21t4 25q7 12 20 15t26 -4q73 -44 154 -54q160 -18 285 77q127 96 151 252q20 121 -33 231.5t-163 172.5q-103 58 -213 49q-235 -18 -337 -232q-40 -84 -34 -185q7 -100 60 -184q16 -25 -3 -44q-12 -11 -27 -9t-24 16q-42 65 -58 136
q-51 220 86 395q109 139 283 167q237 37 407 -136q99 -100 121 -246q5 -27 5 -48v-26v-14v-11q-2 -30 -8 -59q-30 -154 -149.5 -258t-277.5 -112h-43zM566 234v-93q0 -15 -9 -25t-23 -10q-15 0 -24.5 10t-9.5 25v190q0 9 -8 9q-68 -1 -188 0q-18 0 -28.5 13t-4.5 30
q7 22 32 22h187q6 0 8 2t2 8q-1 71 -1 185q0 17 11.5 27.5t27.5 7.5q12 -3 19 -12t7 -21q0 -22 0.5 -62.5t0.5 -55.5v-31.5v-40.5q0 -7 8 -7h189q15 0 25 -9t10 -23q0 -15 -9.5 -24.5t-25.5 -9.5h-170q-17 0 -18 1q-9 0 -9 -9q1 -14 1 -97v0zM618 297z" />
    <glyph glyph-name="xiangqing" unicode="&#xe63d;" 
d="M704 895q-2 0 -114 0.5t-223 0.5h-111q-53 0 -90.5 -37.5t-37.5 -90.5v-768q0 -53 37.5 -90.5t90.5 -37.5h576q53 0 90.5 37.5t37.5 90.5v640zM736 128h-384q-13 0 -22.5 9.5t-9.5 22.5t9.5 22.5t22.5 9.5h384q13 0 22.5 -9.5t9.5 -22.5t-9.5 -22.5t-22.5 -9.5zM736 320
h-384q-13 0 -22.5 9.5t-9.5 22.5t9.5 22.5t22.5 9.5h384q13 0 22.5 -9.5t9.5 -22.5t-9.5 -22.5t-22.5 -9.5zM768 640q-27 0 -45.5 19t-18.5 45v128l192 -192h-128z" />
    <glyph glyph-name="xiala-copy" unicode="&#xe655;" 
d="M148 -39q-13 -15 -33.5 -15.5t-35 13t-15.5 33.5t12 35l403 399q13 15 33 16t35 -13v0v0v0l2 -1v-1l1 -1v0v0v0h1l401 -399q14 -15 13 -35t-16 -33.5t-35 -13t-34 15.5l-366 360l-366 -360v0zM148 347q-13 -15 -33.5 -16t-35 13t-15.5 34t12 35l403 399q13 15 33 16
t35 -13v0v0l2 -1v-1l1 -1v0v0v0l1 -1l401 -398q14 -15 13 -35t-16 -34t-35 -13t-34 16l-366 360z" />
    <glyph glyph-name="coupon" unicode="&#xe621;" 
d="M1024 482v206q0 27 -18.5 45.5t-45.5 18.5h-176q7 0 11.5 -4.5t4.5 -11.5t-4.5 -11.5t-11.5 -4.5t-11.5 4.5t-4.5 11.5t4.5 11.5t11.5 4.5h-720q-27 0 -45.5 -18.5t-18.5 -45.5v-208q40 0 68 -28t28 -68t-28 -68t-68 -28v-208q0 -27 18.5 -45.5t45.5 -18.5h720
q-7 0 -11.5 4.5t-4.5 11.5t4.5 11.5t11.5 4.5t11.5 -4.5t4.5 -11.5t-4.5 -11.5t-11.5 -4.5h176q27 0 45.5 18.5t18.5 45.5v210q-40 0 -68 28t-28 68t28 68t68 28v0zM640 464v-64h-160v-64h160v-64h-160v-96h-64v96h-160v64h160v64h-160v64h64l-64 96h64l64 -96h128l64 96h64
l-64 -96h64zM784 80q-7 0 -11.5 4.5t-4.5 11.5t4.5 11.5t11.5 4.5t11.5 -4.5t4.5 -11.5t-4.5 -11.5t-11.5 -4.5zM784 144q-7 0 -11.5 4.5t-4.5 11.5t4.5 11.5t11.5 4.5t11.5 -4.5t4.5 -11.5t-4.5 -11.5t-11.5 -4.5zM784 208q-7 0 -11.5 4.5t-4.5 11.5t4.5 11.5t11.5 4.5
t11.5 -4.5t4.5 -11.5t-4.5 -11.5t-11.5 -4.5zM784 272q-7 0 -11.5 4.5t-4.5 11.5t4.5 11.5t11.5 4.5t11.5 -4.5t4.5 -11.5t-4.5 -11.5t-11.5 -4.5zM784 336q-7 0 -11.5 4.5t-4.5 11.5t4.5 11.5t11.5 4.5t11.5 -4.5t4.5 -11.5t-4.5 -11.5t-11.5 -4.5zM784 400q-7 0 -11.5 4.5
t-4.5 11.5t4.5 11.5t11.5 4.5t11.5 -4.5t4.5 -11.5t-4.5 -11.5t-11.5 -4.5zM784 464q-7 0 -11.5 4.5t-4.5 11.5t4.5 11.5t11.5 4.5t11.5 -4.5t4.5 -11.5t-4.5 -11.5t-11.5 -4.5zM784 528q-7 0 -11.5 4.5t-4.5 11.5t4.5 11.5t11.5 4.5t11.5 -4.5t4.5 -11.5t-4.5 -11.5
t-11.5 -4.5zM784 592q-7 0 -11.5 4.5t-4.5 11.5t4.5 11.5t11.5 4.5t11.5 -4.5t4.5 -11.5t-4.5 -11.5t-11.5 -4.5zM784 656q-7 0 -11.5 4.5t-4.5 11.5t4.5 11.5t11.5 4.5t11.5 -4.5t4.5 -11.5t-4.5 -11.5t-11.5 -4.5z" />
    <glyph glyph-name="204" unicode="&#xe62d;" 
d="M930 554q-3 3 -30 35q-114 133 -147 169q-10 10 -16 15.5t-19 11.5t-28 7h-102h-65.5h-68.5h-59h-43h-16q-36 0 -66 -34q-18 -22 -79 -92l-96 -112q-24 -28 -24.5 -64t22.5 -71l2 -2q29 -34 208 -240l144 -166q31 -35 65.5 -35t64.5 34l150 173q164 188 203 234
q22 26 23.5 64.5t-23.5 72.5zM888 453q-42 -50 -203 -234l-149 -172q-14 -16 -23.5 -16t-23.5 16l-144 166q-171 197 -207 238q-25 39 -1 67l96 112q65 75 79 92q13 15 24 15h252h100q9 -1 24 -17q32 -34 146 -167q26 -30 30 -35q11 -15 10.5 -34t-10.5 -31zM681 500
l-169 -217l-169 218q-2 3 -5 3h-83v-39h2q19 0 28 -12q3 -3 3 -4q19 -26 111.5 -141t112.5 -142q21 27 113.5 142.5t111.5 141.5l2 3q10 12 28 12h2v39h-83q-3 0 -5 -4z" />
    <glyph glyph-name="jifen" unicode="&#xe66b;" 
d="M935 438v0q-11 0 -18.5 -7.5t-7.5 -18.5q0 -22 -19 -34q-3 61 -31 116q-30 62 -84 109q-60 51 -138 77q-8 49 -47 82t-90 33t-89.5 -33t-47.5 -82q-24 -8 -47 -19l-16 16q-32 33 -79 33t-80 -33q-7 -7 -7 -17.5t7 -18.5l61 -60q-39 -40 -62 -88h-36q-16 0 -27 -11.5
t-11 -27.5v-188q0 -16 11 -27t27 -11h36q29 -59 80 -105l-2 -2q-20 -34 -9.5 -72.5t44.5 -58.5q23 -13 48.5 -13t48 13t34.5 35l5 9q54 -14 111 -14t111 14l5 -9q13 -22 35 -35t48 -13v0q26 0 48 13q34 20 44.5 58.5t-9.5 72.5l-1 2q47 43 75 97q26 50 32 103q32 7 52 32
t20 57q0 11 -7 18.5t-18 7.5v0zM500 744q36 0 62 -25.5t26 -62.5q0 -18 -7 -35q-40 10 -81 10t-80 -10q-7 17 -7 35q0 37 25.5 62.5t61.5 25.5v0zM732 149q-7 -6 -9 -15.5t3 -17.5l12 -20q9 -16 4 -34t-21 -28q-10 -6 -22 -6q-26 0 -39 23l-15 25q-7 13 -22 13q-4 0 -7 -1
q-56 -17 -116 -17t-115 17q-20 6 -30 -12l-15 -25q-13 -23 -39 -23q-12 0 -22 6q-16 10 -21 28t5 34l11 20q5 8 3.5 17.5t-9.5 15.5q-60 48 -88 114q-6 16 -23 16h-40v163h40q17 0 23 16q25 58 76 103q8 7 8 18t-7 19l-57 57q10 4 21 4q25 0 43 -18l29 -29q14 -13 30 -5
q20 11 42 19q8 -37 34 -64q49 18 101.5 18t100.5 -18q26 27 34 64q92 -34 148.5 -106t56.5 -160q0 -60 -28 -114.5t-80 -96.5v0zM287 529q-18 0 -30.5 -12.5t-12.5 -30.5t12.5 -30.5t30.5 -12.5t30.5 12.5t12.5 30.5t-12.5 30.5t-30.5 12.5v0zM287 529z" />
    <glyph glyph-name="youhuiquan" unicode="&#xe69b;" 
d="M1006 514v203h-988v-203q55 0 94 -38t39 -92t-39 -92t-94 -38v-203h988v203q-55 0 -94 38t-39 92t39 92t94 38zM655 404v-48h-111v-66h111v-48h-111v-95h-61v95h-115v48h115v66h-115v48h97l-118 216h69l83 -168q7 -15 15 -36h2q6 17 16 37l83 167h65l-120 -216h95z" />
    <glyph glyph-name="xiaolvdashiicon02-copy-copy" unicode="&#xe626;" 
d="M804 490h-2q-23 0 -44 -13q-9 26 -30 42t-49 16q-25 0 -46 -13q-9 26 -30 42t-49 16q-21 0 -41 -10v86q0 36 -24 61t-59 25q-36 0 -61 -25t-25 -61v-332l-53 52q-26 24 -62.5 23t-59.5 -23q-15 -15 -23.5 -36.5t-5 -46.5t22.5 -45l241 -239q7 -7 16 -13q36 -29 80.5 -43
t120.5 -14q51 0 91 8.5t68 21.5t47.5 35t31 45t18 55t8.5 61t2 68v171q0 36 -24 61t-59 25v0zM841 233q0 -39 -0.5 -58t-4.5 -50.5t-12 -47.5t-24 -37t-39.5 -31t-58.5 -17t-81 -7q-69 0 -114 15t-77 47l-229 227q-14 16 -12.5 32.5t14.5 30.5q12 12 31.5 12.5t31.5 -11.5
l74 -74l49 -49v432q0 17 12 29t29 12t27.5 -12t10.5 -29v-275h1q-1 -2 -1 -4q0 -10 6.5 -16.5t16 -6.5t16.5 6.5t7 16.5q0 2 -1 4h1v113q0 17 11 29t27 12q2 0 4.5 -0.5t9.5 -2.5t12.5 -6t9.5 -12t4 -20v-149h1q-1 -2 -1 -4q0 -10 7 -16.5t16.5 -6.5t16 6.5t6.5 16.5
q0 2 -1 4h1v104q0 17 11 29t28 12q1 -1 4 -1t10 -2.5t12.5 -6.5t9.5 -12t4 -19v-131h1q-1 -2 -1 -4q0 -10 7 -16.5t16 -6.5t15.5 6.5t6.5 16.5v4v0v89q0 17 11.5 29t28.5 12h4t9.5 -2t12 -6t9.5 -12.5t4 -20.5v-165v0zM310 529v75q-11 26 -11 53q0 54 38 92t92 38t92 -38
t38 -92q0 -14 -3 -28q24 -1 41 -19q7 24 7 47q0 73 -51.5 124t-124 51t-123.5 -51t-51 -124q-1 -76 56 -128v0zM310 529z" />
    <glyph glyph-name="game" unicode="&#xe608;" horiz-adv-x="1025" 
d="M729 486h-433q-97 0 -165.5 -75t-68.5 -181t68.5 -181t165.5 -75h433q96 0 164.5 75t68.5 181t-68.5 181t-164.5 75v0zM374 196h-52v-51q0 -14 -10.5 -24t-24.5 -10t-24.5 10t-10.5 24v51h-51q-15 0 -25 10t-10 24t10 24t25 10h51v52q0 14 10.5 24t24.5 10t24.5 -10
t10.5 -24v-52h52q14 0 24 -10t10 -24t-10 -24t-24 -10v0zM651 196q-15 0 -25 10t-10 24t10 24t24.5 10t24.5 -10t10 -24t-10 -24t-24 -10v0zM737 111q-14 0 -24 10t-10 24t10 24t24.5 10t24.5 -10t10 -24t-10 -24t-25 -10v0zM737 282q-14 0 -24 10t-10 24t10 24t24.5 10
t24.5 -10t10 -24t-10 -24t-25 -10v0zM824 196q-15 0 -25 10t-10 24t10 24t24.5 10t24.5 -10t10 -24t-10 -24t-24 -10v0zM755 743v51h-70v-39q0 -28 -11.5 -42.5t-29.5 -18.5t-40.5 -4t-44.5 -2t-40.5 -9.5t-29.5 -30t-11 -59.5v-51h69q-3 33 4.5 53.5t22 26.5t33 8.5t39 0.5
t40 2.5t35 13.5t25 34.5t9.5 65.5v0z" />
    <glyph glyph-name="bianji2" unicode="&#xe682;" 
d="M256 724q-33 0 -57 -25.5t-24 -61.5v-522q0 -36 24 -61t57 -25h489q33 0 57 25t24 61v343l83 87v-462q0 -59 -40.5 -101.5t-96.5 -42.5h-545q-56 0 -95.5 42t-39.5 102v577q0 61 39.5 107.5t95.5 46.5h431l-81 -90h-321v0zM555 300l-181 -55l52 192l129 -137v0zM573 319
l-129 137l284 303l130 -137l-285 -303v0zM916 684l-38 -42l-130 138l39 41q11 12 25.5 12.5t24.5 -10.5l81 -86q10 -11 9.5 -26.5t-11.5 -26.5v0zM916 684z" />
    <glyph glyph-name="dengji2" unicode="&#xe610;" 
d="M512 884q-102 0 -195.5 -40t-160.5 -106.5t-107 -159t-40 -194.5t40 -194.5t107 -159t160.5 -106.5t195.5 -40t195.5 40t160.5 106.5t107 159t40 194.5t-40 194.5t-107 159t-160.5 106.5t-195.5 40v0zM655 525q-15 -44 -56 -107t-133 -169q-12 -13 -128 -133h-22
q-14 363 -58 454q-14 29 -48 29q-15 0 -41 -5l-4 20l167 36q18 -43 29 -87q16 -64 25 -154q5 -47 13 -190q72 79 86 98q75 101 88 121q19 30 27 54q6 17 6 32t-26 35q-27 20 -27 44q0 18 14.5 32.5t35.5 14.5q24 0 42.5 -20t18.5 -49t-9 -56v0zM862 130h-177v23l29 28
q58 54 80.5 84.5t23.5 59.5q0 24 -13.5 39t-42.5 15q-30 0 -58 -23l-12 26q33 28 78 28q42 0 63.5 -23.5t21.5 -56.5q0 -35 -22.5 -67.5t-72.5 -80.5l-23 -20v-1h125v-31v0zM862 130z" />
    <glyph glyph-name="shuoming-copy-copy" unicode="&#xe6a8;" 
d="M722 669v-571q0 -43 -30.5 -73.5t-73.5 -30.5h-392q-43 0 -73.5 30.5t-30.5 73.5v572q0 43 30.5 73.5t73.5 30.5h392q43 0 73.5 -30.5t30.5 -73.5v-1zM722 -50v-16h120q49 0 84.5 35.5t35.5 84.5v480q0 50 -35.5 85t-84.5 35h-60v60q0 49 -35 84.5t-85 35.5h-480
q-49 0 -84.5 -35.5t-35.5 -84.5v-660q0 -49 35.5 -84.5t84.5 -35.5h480q32 0 60 16zM902 98q0 -43 -30.5 -73.5t-73.5 -30.5h-32q16 28 16 60v540h16q43 0 73.5 -30.5t30.5 -73.5v-1v-391zM242 189q0 -7 4 -10.5t8.5 -4t13.5 -0.5h4h300h4q9 0 13.5 0.5t8.5 4t4 10.5
q0 14 -9 29.5t-21 15.5h-300q-11 0 -20.5 -15.5t-9.5 -29.5zM242 369q0 -7 4 -10.5t8.5 -4t13.5 -0.5h4h300h4q9 0 13.5 0.5t8.5 4t4 10.5q0 14 -9 29.5t-21 15.5h-300q-11 0 -20.5 -15.5t-9.5 -29.5zM242 549q0 -7 4 -10.5t8.5 -4t13.5 -0.5h4h300h4q9 0 13.5 0.5t8.5 4
t4 10.5q0 14 -9 29.5t-21 15.5h-300q-11 0 -20.5 -15.5t-9.5 -29.5z" />
    <glyph glyph-name="putonghuiyuanicon" unicode="&#xe7a6;" 
d="M612 175l29 -57l97 -189q21 -41 58 -41t58 41l127 248q6 12 2 24.5t-16 19t-24.5 2t-18.5 -15.5l-127 -249h-2l-97 189l-30 57q-6 12 -18.5 16t-24 -2t-16 -19t2.5 -24v0zM503 312q120 0 204 84.5t84 204t-84 203.5t-203.5 84t-204 -84t-84.5 -203.5t84.5 -204
t203.5 -84.5v0zM503 376q-92 0 -158 66t-66 158.5t66 158t158.5 65.5t158 -65.5t65.5 -158t-65.5 -158.5t-158.5 -66v0zM551 376q-96 0 -189 -38.5t-162 -102t-111.5 -150.5t-42.5 -179q0 -13 9.5 -22.5t22.5 -9.5t22.5 9.5t9.5 22.5q0 79 37 154t97.5 130t141.5 88.5
t165 33.5q32 0 51.5 10t21 22t-17 22t-55.5 10z" />
    <glyph glyph-name="xinfeng" unicode="&#xe627;" 
d="M891 744q-34 19 -69 19h-620q-35 0 -69 -19l379 -373zM940 696l-402 -396q-11 -10 -26 -9q-15 -1 -26 9l-402 396q-19 -34 -19 -69v-474q0 -56 40.5 -95.5t96.5 -39.5h620q56 0 96.5 39.5t40.5 95.5v474q0 35 -19 69z" />
    <glyph glyph-name="gantanhao" unicode="&#xe669;" 
d="M513 827q-91 0 -173.5 -35t-142 -94.5t-94.5 -142t-35 -173t35 -173t94.5 -142t142 -94.5t173 -35t173 35t142 94.5t95 142t35.5 173t-35.5 173t-95 142t-142 94.5t-172.5 35v0zM588 679l-22 -420h-107l-22 420h151zM510 59q-34 0 -54.5 21.5t-20.5 53.5q0 33 21.5 54
t54.5 21t53.5 -21t20.5 -54t-20.5 -54t-54.5 -21v0zM510 -12z" />
    <glyph glyph-name="gerenzhongxin" unicode="&#xe60e;" 
d="M612 328h-199q-128 0 -218.5 -89t-90.5 -215v-19q0 -17 9.5 -29t34 -19.5t46 -12t65 -6t71 -2t83.5 -0.5h199q51 0 82.5 0.5t72 2.5t64 6.5t46.5 12t33 19.5t10 28v19q0 126 -90.5 215t-217.5 89zM502 362q99 0 169 69t70 166t-70 166t-169 69t-169 -69t-70 -166t70 -166
t169 -69z" />
    <glyph glyph-name="fuwu" unicode="&#xe609;" 
d="M960 -8q0 -22 -16 -38t-38 -16h-310q-22 0 -38 16t-16 38v310q0 23 16 38.5t38 15.5h310q22 0 38 -15.5t16 -38.5v-310zM960 468q0 -22 -16 -38t-38 -16h-310q-22 0 -38 16t-16 38v310q0 22 16 38t38 16h310q22 0 38 -16t16 -38v-310zM431 -62h-310q-22 0 -38 16t-16 38
v310q0 23 16 38.5t38 15.5h310q22 0 38 -15.5t16 -38.5v-310q0 -22 -16 -38t-38 -16zM485 468q0 -22 -16 -38t-38 -16h-310q-22 0 -38 16t-16 38v310q0 22 16 38t38 16h310q22 0 38 -16t16 -38v-310z" />
    <glyph glyph-name="xiangqing-copy" unicode="&#xe60a;" 
d="M993 94l-136 88q12 35 12 72q0 90 -63 153.5t-152 63.5t-152.5 -63.5t-63.5 -153t63.5 -153.5t152.5 -64q51 0 96 23.5t76 63.5l131 -86q8 -5 18 -5q18 0 27 15q8 11 5 24.5t-14 21.5zM654 104q-62 0 -106 44t-44 106t44 106.5t106 44.5t106 -44.5t44 -106.5t-44 -106
t-106 -44zM762 -1v0q0 -25 -18 -43t-42 -18h-559q-25 0 -42.5 18t-17.5 43v754q0 25 17.5 42.5t42.5 17.5h559q24 0 42 -17.5t18 -42.5v-262q36 -17 65 -44v306q0 52 -36.5 89.5t-88.5 37.5h-559q-52 0 -89 -37.5t-37 -89.5v-754q0 -52 37 -89.5t89 -37.5h559q52 0 89 37.5
t37 89.5v62q-30 -27 -66 -44v-18v0zM612 511h-421q-14 0 -23.5 -9.5t-9.5 -23t9.5 -23.5t23.5 -10h287q57 54 134 66zM687 645q0 14 -10 23.5t-23 9.5h-463q-14 0 -23.5 -9.5t-9.5 -23.5t9.5 -23.5t23.5 -9.5h463q13 0 23 9.5t10 23.5zM158 311.5q0 -13.5 9.5 -23t23.5 -9.5
h205q3 34 15 66h-220q-14 0 -23.5 -10t-9.5 -23.5z" />
    <glyph glyph-name="baobiao" unicode="&#xe631;" 
d="M839 649q0 -12 8.5 -21t21 -9t21.5 9t9 21v153q0 12 -9 21t-21 9h-153q-12 0 -21 -9t-9 -21.5t9 -21t21 -8.5h83l-263 -263l-82 81q-9 9 -21 9v0q-13 0 -21 -9l-279 -280q-9 -9 -9 -21.5t9 -21.5t21.5 -9t20.5 9l258 259l81 -81q9 -8 21.5 -8t21.5 8l282 282v-78z
M774 514h126v-578h-126v578zM564 395h126v-459h-126v459zM353 279h126v-343h-126v343zM143 152h126v-216h-126v216z" />
    <glyph glyph-name="111111102" unicode="&#xe614;" 
d="M723 -81h-143v310h-133v-310h-146q-67 0 -111 52q-40 47 -40 110v200q-32 1 -57.5 18t-37.5 45q-12 27 -7 59q7 39 39 72l314 327q46 47 111 47t111 -47l314 -327q32 -33 39 -72q5 -32 -7 -59q-12 -28 -37.5 -45t-57.5 -18v-200q0 -63 -40 -110q-45 -52 -111 -52z" />
    <glyph glyph-name="huiyuan1" unicode="&#xe664;" 
d="M765 -6h-488q-8 0 -11 10l-112 366q-4 10 2 18.5t14 3.5q13 -8 35.5 -21t69 -33.5t70.5 -20.5h7q22 4 70 100.5t89 204.5q3 9 10.5 9t10.5 -9q41 -108 89 -204.5t70 -100.5h7q23 0 70 20.5t69.5 33.5t35.5 21q8 5 13.5 -3.5t2.5 -18.5l-113 -366q-3 -10 -11 -10zM285 28
h472l98 317q-121 -69 -167 -61q-23 4 -59 64t-60 115t-48 115q-23 -60 -47 -115t-60.5 -115t-59.5 -64q-45 -7 -166 61zM521 650q-28 0 -48 20t-20 48t20 48t48 20t48 -20t20 -48t-20 -48t-48 -20zM521.5 754q-14.5 0 -25 -10.5t-10.5 -25.5t10.5 -25.5t25 -10.5t25 10.5
t10.5 25.5t-10.5 25.5t-25 10.5zM879.5 423q-25.5 0 -44 18t-18.5 43.5t18.5 43.5t44 18t43.5 -18t18 -43.5t-18 -43.5t-43.5 -18zM879 514q-12 0 -20.5 -9t-8.5 -21t8.5 -20.5t20.5 -8.5t21 8.5t9 20.5t-9 21t-21 9zM142.5 423q-25.5 0 -43.5 18t-18 43.5t18 43.5t43.5 18
t43.5 -18t18 -43.5t-18 -43.5t-43.5 -18zM143 514q-12 0 -21 -9t-9 -21t9 -20.5t21 -8.5t20.5 8.5t8.5 20.5t-8.5 21t-20.5 9z" />
    <glyph glyph-name="cebianlan1" unicode="&#xe63a;" 
d="M1 754v-56h853v56h-853zM1 356h853v57h-853v-57zM1 15h853v57h-853v-57z" />
    <glyph glyph-name="icon" unicode="&#xe66a;" 
d="M709 832h-391q-34 0 -59 -24.5t-25 -59.5v-726q0 -35 25 -59.5t59 -24.5h391q35 0 59.5 24.5t24.5 59.5v726q0 35 -24.5 59.5t-59.5 24.5v0zM402 790h224v-28h-224v28v0zM514 -6q-23 0 -39.5 16t-16.5 39.5t16.5 39.5t39.5 16t39.5 -16t16.5 -39.5t-16.5 -39.5t-39.5 -16
v0zM737 161h-447v559h447v-559v0zM737 161zM625 266v32h-33v-32h33zM674 266q6 0 10.5 4t4.5 10v18h-32v-32h17zM462 589v-97h-96v97h96zM480 621h-132q-6 0 -10 -4.5t-4 -10.5v-132q0 -6 4 -10t10 -4h132q6 0 10.5 4t4.5 10v132q0 6 -4.5 10.5t-10.5 4.5v0v0zM398 540
q0 -6 4.5 -11t11.5 -5t11.5 5t4.5 11.5t-4.5 11t-11.5 4.5t-11.5 -4.5t-4.5 -11.5v0zM657 589v-97h-97v97h97zM674 621h-132q-6 0 -10 -4.5t-4 -10.5v-132q0 -6 4 -10t10 -4h132q6 0 10.5 4t4.5 10v132q0 6 -4.5 10.5t-10.5 4.5v0v0zM592 540q0 -6 5 -11t11.5 -5t11 5
t4.5 11.5t-4.5 11t-11 4.5t-11.5 -4.5t-5 -11.5v0zM462 394v-96h-96v96h96zM480 427h-132q-6 0 -10 -4.5t-4 -10.5v-132q0 -6 4 -10t10 -4h132q6 0 10.5 4t4.5 10v132q0 6 -4.5 10.5t-10.5 4.5v0v0zM398 346q0 -7 4.5 -11.5t11.5 -4.5t11.5 4.5t4.5 11.5t-4.5 11.5
t-11.5 4.5t-11.5 -4.5t-4.5 -11.5v0zM674 427h-18v-65h-32v65h-82q-6 0 -10 -4.5t-4 -10.5v-132q0 -6 4 -10t10 -4h18v32v32v32h32v-32h97v82q0 6 -4.5 10.5t-10.5 4.5v0zM674 427z" />
    <glyph glyph-name="shouye2" unicode="&#xe615;" horiz-adv-x="1025" 
d="M992 453l-389 404q-37 39 -90.5 39t-91.5 -39l-388 -404q-19 -19 -26.5 -39t-7 -32t5.5 -21q17 -40 66 -40h57v-311q0 -55 35 -96t88 -41h65h100v73v256v14v12.5t1 9.5t3 8.5t5 5t8.5 4.5t13.5 1h65h66q7 0 12.5 -1t9 -4.5t5.5 -5t2.5 -8.5t1 -9.5t0 -12.5t-0.5 -14v-256
v-73h100h66q52 0 87 41t35 96v311h57q49 0 67 40q4 9 5 21t-7 32t-26 39v0zM992 453z" />
    <glyph glyph-name="daosanjiao" unicode="&#xe632;" 
d="M512 -60l-512 888h1024l-512 -888v0zM512 -60z" />
    <glyph glyph-name="cebianlankongzhi" unicode="&#xe63b;" 
d="M984 153q8 0 14 -6.5t6 -16.5v-77q0 -9 -6 -15.5t-14 -6.5h-950q-8 0 -14 6.5t-6 15.5v77q0 10 6 16.5t14 6.5h950zM984 515q8 0 14 -6.5t6 -15.5v-78q0 -9 -6 -15.5t-14 -6.5h-950q-8 0 -14 6.5t-6 15.5v78q0 9 6 15.5t14 6.5h950zM984 880q8 0 14 -6.5t6 -15.5v-78
q0 -9 -6 -15.5t-14 -6.5h-950q-8 0 -14 6.5t-6 15.5v78q0 9 6 15.5t14 6.5h950z" />
    <glyph glyph-name="fabu" unicode="&#xe658;" 
d="M64 333l282 -88l384 301l-290 -330l330 -104l190 670zM424 -14l122 145l-122 35v-180z" />
    <glyph glyph-name="jiaofeijilusshixin" unicode="&#xe60b;" 
d="M388 637h258q23 0 39 16t16 39v1q-1 30 -17 59t-49 34h-51q-7 21 -25.5 35t-41.5 14t-41.5 -14t-24.5 -35h-49h-3q-33 -5 -49 -34t-17 -59v-1q0 -23 16 -39t39 -16zM825 714h-97q2 -10 2 -20v-2q0 -35 -24.5 -59.5t-59.5 -24.5h-258q-35 0 -59.5 24.5t-24.5 59.5v1
q1 11 2 21h-97q-36 0 -61.5 -25.5t-25.5 -60.5v-619q0 -36 25.5 -61.5t61.5 -25.5h616q36 0 61.5 25.5t25.5 61.5v619q0 35 -25.5 60.5t-61.5 25.5zM726 258q9 0 16 -7t7 -17t-7 -16.5t-16 -6.5h-185v-196q0 -9 -7 -16t-17 -7t-16.5 7t-6.5 16v196h-186q-9 0 -16 6.5
t-7 16.5t7 17t16 7h186v127h-186q-9 0 -16 7t-7 16.5t7 16.5t16 7h178l-128 101q-6 6 -7 14t4 14.5t13.5 7.5t14.5 -4l134 -107l134 107q6 5 14.5 4t13.5 -7.5t4 -14.5t-7 -14l-127 -101h177q9 0 16 -7t7 -16.5t-7 -16.5t-16 -7h-185v-127h185v0z" />
    <glyph glyph-name="shengri" unicode="&#xe6bb;" 
d="M478 -85q-77 0 -149 12.5t-118 28t-87 36t-55 30t-22 15.5q-13 11 -13 27l9 299q0 14 10 23.5t24 9t23.5 -10.5t8.5 -24l-8 -281q85 -54 204 -80q274 -59 600 72l7 268q0 13 10 22t24 10q14 0 23.5 -10t9.5 -24l-8 -290q0 -22 -20 -30q-248 -103 -473 -103v0zM297 449
l-1 181l1 -181v0zM483 71q-77 0 -148 13t-116 29t-85 37t-53 30.5t-21 16.5q-10 9 -11 23t8 24t22.5 11t23.5 -8v0q7 -5 24 -17t69.5 -35.5t112.5 -37.5q274 -62 615 76q13 5 25.5 0t18 -18t0 -25.5t-18.5 -18.5q-247 -100 -466 -100v0zM690 245h-2q-20 1 -38.5 11t-25 17
t-10.5 13l-0.5 1t-1.5 1q-11 20 -18 21q-5 0 -12 -10l-5 -5q-52 -47 -100 -38q-41 7 -63 46q-1 2 -2 3q-9 1 -21 -7q-69 -54 -123 -35q-45 15 -61 67q-10 22 -57 18q-34 -14 -68 -2q-20 7 -37 24.5t-23 27t-9 17.5q-25 55 -2 103q10 23 29.5 41t40.5 28.5t32.5 15t19.5 6.5
q13 4 25 -3t16 -20.5t-3 -25.5t-20 -15q-21 -6 -46 -20.5t-34.5 -35t2.5 -47.5q4 -7 9 -15t18 -15.5t27 -1.5q3 2 8 3q21 2 46 1t51 -16.5t37 -44.5l2 -4q5 -19 19 -23q20 -7 61 25q35 25 72 19q29 -5 47 -31q2 -3 2 -4v0q7 -12 18 -14q15 -2 40 20q29 36 68 34
q41 -2 71 -52q10 -11 21 -11v0q19 0 44 32q28 47 75 56q46 9 93 -27q18 -1 30 8q17 12 22 45q6 48 -17 77q-28 35 -99 39q-13 1 -22.5 11t-8.5 24t11 23t24 8q101 -5 148 -64q19 -25 26 -58t6 -48t-3 -23q-8 -60 -49 -89q-40 -28 -88 -18q-8 2 -15 7q-26 23 -45 19
q-8 -1 -15.5 -7.5t-10.5 -10.5t-4 -6q-2 -4 -3 -5q-47 -60 -99 -60v0zM336 681v0q-26 0 -48 15l-2 2q-21 18 -22 46q-2 47 48 100q8 8 18.5 8.5t18.5 -6.5q18 -15 29 -32.5t15.5 -31t5.5 -27t0 -18.5t-1 -8l-2 -4q-18 -44 -60 -44v0zM320 739q9 -5 16 -5v0q6 0 10 9
q2 20 -13 42q-16 -25 -16 -39q1 -4 3 -7v0zM511 662v0q-24 0 -47 14q-2 1 -4 3q-19 17 -21.5 43t9 51.5t19 39t14.5 23.5q7 8 17.5 10t19.5 -4q22 -15 35.5 -34.5t18.5 -34t5.5 -31t-0.5 -22t-2 -10.5l-1 -2q-18 -46 -63 -46v0zM495 720q9 -4 16 -4v0q8 0 13 10q6 28 -16 53
q-24 -44 -13 -59v0zM691 682v0q-30 0 -52 23q-20 19 -20 46q1 20 13 41t22 31t18 17q16 13 32 2q30 -21 43.5 -47.5t12 -45.5t-9.5 -33q-1 -3 -3 -5q-25 -29 -56 -29v0zM691 784q-18 -22 -18 -34q0 -3 3 -6l2 -2q6 -7 13 -7q6 0 13 8q7 20 -13 41v0zM319 401q-7 0 -14 2
q-11 3 -16.5 12t-2.5 20q1 4 2 7q-6 -5 -14 -5q-12 0 -19.5 7.5t-7.5 18.5l-2 161q0 7 3 13q21 39 58 44t72 -32q7 -8 7 -18l3 -173q0 -9 -4 -16q-4 -6 -10.5 -13t-22.5 -17.5t-32 -10.5v0zM298 617l2 -153q0 -7 -3 -13q10 6 21 4q6 -1 17 11l-3 154q-11 9 -18.5 8
t-15.5 -11v0zM477 424l-1 181l1 -181v0zM499 376q-7 0 -14 2q-11 3 -16.5 12.5t-2.5 19.5q0 3 2 7q-6 -5 -15 -5q-10 0 -18 8t-8 18l-2 161q0 11 7 18q5 5 12.5 11.5t25.5 15t36 8.5q31 -2 53 -30q5 -6 6 -16l3 -173q0 -9 -4 -16q-29 -41 -65 -41v0zM478 587l2 -148
q0 -7 -4 -13q10 6 22 4q6 -1 17 11l-3 154q-4 3 -9 3q-9 1 -25 -11v0zM676 449l-2 181l2 -181v0zM697 401q-7 0 -14 2q-10 3 -16 12t-3 20q1 4 2 7q-6 -5 -14 -5q-12 0 -19.5 7.5t-7.5 18.5l-2 161q0 11 7 18q34 36 74 35q31 -2 53 -30q6 -7 6 -16l3 -173q1 -9 -4 -16
q-4 -6 -10.5 -13t-22.5 -17.5t-32 -10.5v0zM676 612l2 -148q0 -7 -3 -13q10 6 21 4q6 -1 17 11l-3 154q-4 3 -8 3q-10 1 -26 -11v0z" />
    <glyph glyph-name="guize" unicode="&#xe668;" 
d="M813 794l45 -45l25 -26q3 -3 6.5 -9.5t6.5 -9.5v-13v-19h-154q-12 0 -19 6q-3 4 -6 10t-7 10q0 12 -6 25v19v128v0h19q7 0 19 -12q4 -4 13.5 -10t12.5 -10q6 -9 22 -22t23 -22v0zM640 736q0 -26 6 -45l20 -38q10 -22 32 -32q25 -13 51 -13h147v-576q0 -26 -13 -51
q-15 -30 -32 -39q-16 -16 -45 -25q-12 -7 -44 -7h-500q-6 0 -44 13q-26 13 -45 32q-26 26 -32 45q-5 0 -9 12t-4 26v692q0 19 13 44q1 3 4.5 10.5t6 12.5t6.5 11.5t8 10.5q12 23 39 32q25 13 45 13h390v-128v0zM704 96q26 0 45 19t19 45t-19 45t-45 19h-384q-26 0 -45 -19
t-19 -45t19 -45t45 -19h384v0zM768 416q0 26 -19 45t-45 19h-384q-26 0 -45 -19t-19 -45t19 -45t45 -19h384q26 0 45 19t19 45v0zM768 416z" />
    <glyph glyph-name="chongzhi" unicode="&#xe61a;" 
d="M953 383q0 -41 -8 -81q-28 -154 -150 -256.5t-282 -102.5q-135 0 -244.5 74t-160.5 194q-35 82 -35 172q87 22 265.5 70.5t314.5 86l136 37.5q4 -3 12 -8t30 -23t41.5 -39t42.5 -54.5t38 -69.5v0zM953 383zM513 -83q-95 0 -181 37t-148.5 99t-99.5 148.5t-37 181t37 181
t99.5 149t148.5 99.5t181 37t181 -37t148.5 -99.5t99.5 -149t37 -181t-37 -181t-99.5 -148.5t-148.5 -99t-181 -37v0zM513 796q-112 0 -207 -55.5t-150.5 -150.5t-55.5 -207t55.5 -207.5t150.5 -151t207 -55.5t207 55.5t150.5 151t55.5 207.5t-55.5 207t-150.5 150.5
t-207 55.5v0zM513 796zM753 612l-30 40l-186 -130h-22l-186 134l-30 -47l122 -87h-110v-53l186 1l-1 -133h-185v-53h185v-185h53v185h159v53h-159v132h159v53h-77zM753 612zM753 612l-30 40l-186 -130h-22l-186 134l-30 -47l122 -87h-110v-53h85l259 71zM753 612z" />
    <glyph glyph-name="jifenwodejifen" unicode="&#xe640;" 
d="M443 492q68 0 130.5 14.5t101.5 41.5v-67h51v146q0 42 -43 73.5t-106 46.5t-133.5 15t-134 -15t-106 -46.5t-42.5 -73.5v-397q0 -42 42.5 -73.5t106 -46.5t133.5 -15v50q-100 0 -166 27.5t-66 57.5v119q40 -26 102.5 -40.5t129.5 -14.5v50q-100 0 -166 27.5t-66 56.5v120
q40 -27 102.5 -41.5t129.5 -14.5v0zM443 711q101 0 166.5 -27t65.5 -56.5t-65.5 -57t-166 -27.5t-166.5 27.5t-66 57t66 56.5t166 27v0zM669 465q-89 0 -139.5 -28.5t-50.5 -67.5v-255q0 -39 50.5 -67.5t139.5 -28.5q88 0 139 28t52 67v0v256q0 39 -51 67.5t-140 28.5v0z
M669 414q43 0 77 -8.5t48.5 -18.5t14.5 -18t-14.5 -18t-48.5 -18.5t-76.5 -8.5t-76.5 8.5t-49 18.5t-15 18t15 18t49 18.5t76 8.5v0zM669 68q-42 0 -76 9t-49 19t-15 18v61q53 -29 140 -29t140 29v-61q0 -8 -14.5 -18t-48.5 -19t-77 -9v0zM669 196q-42 0 -76 9t-49 19
t-15 17v61q53 -29 140 -29t140 29v-61q0 -7 -14.5 -17t-48.5 -19t-77 -9v0z" />
    <glyph glyph-name="gerenzhongxin1" unicode="&#xe618;" 
d="M1000 -102q0 104 -39 199t-104 163.5t-155.5 109t-189.5 40.5t-189.5 -40.5t-155.5 -109t-104 -163.5t-39 -199h976zM512 443q89 0 152.5 66.5t63.5 160t-63.5 160t-152.5 66.5t-152.5 -66.5t-63.5 -160t63.5 -160t152.5 -66.5z" />
    <glyph glyph-name="birthdaycake" unicode="&#xe731;" horiz-adv-x="1025" 
d="M1024 91v-219h-1024v219q26 0 48.5 8t33.5 16t27 22q17 15 29.5 21.5t32.5 6.5t31.5 -6.5t30.5 -21.5q16 -15 26.5 -22.5t33 -15.5t49.5 -8q25 0 48 8.5t33.5 15.5t27.5 22q12 10 18.5 15t17.5 9t25 4q20 0 32.5 -6.5t29.5 -21.5q16 -14 26.5 -22t33.5 -16t49 -8t48.5 8
t33.5 16t27 22q17 15 29.5 21.5t32.5 6.5q19 0 31.5 -6.5t29.5 -21.5q16 -14 27 -22t33.5 -16t48.5 -8zM1024 274v-109q-20 0 -31.5 6t-30.5 22q-16 14 -26.5 21.5t-33.5 15.5t-48 8q-27 0 -49.5 -8t-33 -15.5t-26.5 -21.5q-13 -11 -19.5 -15.5t-17.5 -8.5t-25 -4
q-20 0 -32.5 6t-29.5 22q-16 14 -26.5 21.5t-33.5 15.5t-49 8t-48.5 -8.5t-33 -15.5t-27.5 -21q-12 -11 -18.5 -15.5t-18 -8.5t-24.5 -4q-20 0 -32.5 6t-29.5 22q-16 13 -27 21t-33.5 16t-48.5 8t-49 -8t-33.5 -15.5t-26.5 -21.5q-17 -16 -29.5 -22t-32.5 -6v109q0 46 32 78
t78 32h36v256h147v-256h146v256h146v-256h146v256h147v-256h36q46 0 78 -32t32 -78zM293 768q0 -44 -21 -67.5t-53 -23.5q-30 0 -51.5 21t-21.5 52q0 16 5.5 28.5t13.5 19.5t18 16t18 18t13 25.5t5 38.5q22 0 48 -42.5t26 -85.5zM585 768q0 -44 -20.5 -67.5t-52.5 -23.5
q-30 0 -51.5 21t-21.5 52q0 16 5.5 28.5t13.5 19.5t17.5 16t17.5 18t13.5 25.5t5.5 38.5q22 0 47.5 -42.5t25.5 -85.5zM878 768q0 -44 -20.5 -67.5t-52.5 -23.5q-31 0 -52.5 21t-21.5 52q0 16 5.5 28.5t13.5 19.5t18 16t18 18t13.5 25.5t5.5 38.5q21 0 47 -42.5t26 -85.5z
" />
    <glyph glyph-name="caozuoyuanguanli" unicode="&#xe778;" horiz-adv-x="1037" 
d="M645 21h-639v95q0 44 41 81.5t101.5 60t123 34.5t112.5 12q92 0 195 -33q-7 -30 -7 -61q0 -108 73 -189zM384 399q78 0 133 55t55 133t-55 133.5t-133 55.5t-133.5 -55.5t-55.5 -133.5t55.5 -133t133.5 -55zM973 209q2 13 2 20q0 11 -2 20l44 34q7 6 3 14l-42 71
q-4 7 -12 4l-52 -20q-17 13 -35 20l-7 54q-1 9 -10 9h-83q-9 0 -10 -9l-8 -54q-20 -9 -35 -20l-51 20q-8 3 -13 -4l-41 -71q-4 -8 2 -14l44 -34q-1 -10 -1 -20t1 -20l-44 -34q-6 -6 -2 -14l41 -71q4 -7 13 -4l51 20q17 -13 35 -20l8 -54q1 -9 10 -9h83q9 0 10 9l8 54
q20 9 34 20l52 -20q8 -3 13 4l41 71q4 8 -3 14zM820 167q-25 0 -43 18t-18 44t18 44t43.5 18t43.5 -18t18 -44t-18 -44t-44 -18v0z" />
    <glyph glyph-name="tap" unicode="&#xe623;" 
d="M644 665l-2 -1q-16 -17 -21 -41q-24 13 -51 9t-46 -23q-18 -18 -24 -42q-23 12 -50 8.5t-47 -23.5q-15 -15 -21 -36l-62 62q-25 25 -59.5 25.5t-59.5 -24.5t-25.5 -60.5t24.5 -60.5l236 -236h-74q-35 0 -61 -27t-26 -59q0 -35 23 -65t63 -30l340 1q10 0 20 3
q46 5 87.5 26.5t94.5 75.5q36 36 59 70t33 63t8.5 58.5t-9.5 53.5t-26.5 51.5t-37 49t-46.5 49.5l-121 121q-26 25 -60 26t-59 -24v0zM852 510q21 -21 31.5 -32t27.5 -31t24 -32t16 -31.5t8.5 -35t-3 -36.5t-13.5 -40.5t-28.5 -43.5t-43.5 -50q-48 -48 -90.5 -69t-88.5 -21
l-322 -1q-20 0 -31.5 13t-11.5 32q0 17 13.5 31t29.5 14h106l69 1l-306 305q-12 12 -12 29t12 29t28 11t28 -13l194 -194h1l2 -4q7 -6 16.5 -6t16 6.5t6.5 16t-6 16.5l-4 2v1l-79 80q-12 12 -12.5 28t10.5 28q4 3 9 7t20 4.5t28 -12.5l106 -105v0l3 -3q6 -7 15.5 -7t16 7
t7 16t-6.5 16q-2 2 -4 3h1l-74 74q-12 12 -12.5 27.5t11.5 28.5q1 1 3.5 2.5t9 4.5t13 4.5t15.5 -1.5t17 -10l92 -93v1q2 -2 3 -4q7 -6 16.5 -6t16 6.5t6.5 15.5t-7 16l-3 3v0l-63 63q-12 12 -12.5 28.5t11.5 28.5q3 3 8 7t20 4.5t29 -12.5l117 -117v0zM267 343l-54 54
q-26 10 -45 29q-38 39 -38 92.5t38 91.5t92 38t92 -38q10 -10 18 -22q18 17 42 16q-12 22 -28 38q-51 52 -124 52t-124 -51.5t-51 -124t51 -124.5q54 -54 131 -51v0zM267 343z" />
    <glyph glyph-name="qianjin" unicode="&#xe635;" 
d="M512 896q-104 0 -199 -40.5t-163.5 -109t-109 -163.5t-40.5 -199t40.5 -199t109 -163.5t163.5 -109t199 -40.5t199 40.5t163.5 109t109 163.5t40.5 199t-40.5 199t-109 163.5t-163.5 109t-199 40.5zM512 -28q-112 0 -207 55t-150 150t-55 207t55 207t150 150t207 55
t207 -55t150 -150t55 -207t-55 -207t-150 -150t-207 -55zM427 121q-21 0 -36 11q-16 12 -17 29.5t14 29.5l227 193l-227 193q-15 12 -14 29.5t17 29.5t37.5 11.5t36.5 -13.5l260 -221q14 -12 14 -29t-14 -29l-260 -221q-16 -13 -38 -13z" />
    <glyph glyph-name="chexiao" unicode="&#xe6ba;" 
d="M563 717h-345l70 70q19 19 19 45t-19 45t-44.5 19t-45.5 -19l-179 -179q-19 -20 -19 -45.5t19 -44.5l179 -179q20 -19 45.5 -19t44.5 19t19 44.5t-19 44.5l-70 71h345q106 0 181 -75.5t75 -181t-75 -180.5t-181 -75h-384q-29 0 -46.5 -17.5t-17.5 -46.5t17.5 -46.5
t46.5 -17.5h384q104 0 192.5 51.5t140 140t51.5 192.5t-51.5 192.5t-140 140t-192.5 51.5v0z" />
    <glyph glyph-name="caozuo" unicode="&#xe61c;" 
d="M801 488h-2q-23 0 -44 -13q-9 26 -30 42t-49 16q-25 0 -46 -13q-9 26 -30 42t-49 16q-21 0 -40 -10v87q0 35 -24 60t-60 25q-35 0 -60.5 -25t-25.5 -60v-332l-52 52q-26 24 -63 23t-59 -23q-15 -16 -23.5 -37t-5.5 -46t23 -45l240 -239q7 -7 16 -12q36 -29 81 -43
t120 -14q51 0 91 8t67.5 21t47.5 35t31.5 45t18 55t8 60.5t1.5 67.5v172q0 35 -23.5 60t-58.5 25v0zM838 231q0 -38 -0.5 -57t-4.5 -50.5t-12.5 -47.5t-24 -37t-39 -31t-58.5 -17t-81 -7q-68 0 -113.5 15t-77.5 47l-228 227q-14 16 -13 32.5t14 29.5t32 13t31 -12l75 -74
l49 -48v432q0 16 12 28t28 12q17 0 27.5 -11.5t10.5 -28.5v-275h1q-1 -2 -1 -5q0 -9 7 -15.5t16 -6.5t16 6.5t7 15.5q0 3 -1 5h1v113q0 17 11 28.5t28 11.5h4t9.5 -2.5t12 -6t10 -12t4.5 -19.5v-149v0v-5q0 -9 6.5 -15.5t16 -6.5t16 6.5t6.5 15.5q0 3 -1 5h1v104
q0 17 11 28.5t28 11.5q1 0 4 -0.5t10 -3t12 -6.5t9.5 -12t4.5 -18v-131h1q-1 -2 -1 -5q0 -9 7 -15.5t16 -6.5t15.5 6.5t6.5 15.5v5v0v89q0 17 11.5 29t27.5 12q2 0 4.5 -0.5t9.5 -2.5t12 -5.5t9.5 -12t4.5 -20.5v-166v0zM308 527v76q-12 25 -12 53q0 53 38 91t92 38t92 -38
t38 -91q0 -15 -3 -29q24 -1 41 -18q7 24 7 47q0 72 -51 123.5t-123.5 51.5t-124 -51.5t-51.5 -123.5q0 -77 57 -129v0z" />
    <glyph glyph-name="denglu" unicode="&#xe724;" 
d="M512 896q-139 0 -257 -68.5t-186.5 -186.5t-68.5 -257t68.5 -257t186.5 -186.5t257 -68.5t257 68.5t186.5 186.5t68.5 257t-68.5 257t-186.5 186.5t-257 68.5zM825 64q-16 79 -68.5 141t-127.5 92q35 27 55 66.5t20 84.5q0 80 -56 136t-136 56t-136 -56t-56 -136
q0 -45 20 -84.5t55 -66.5q-75 -30 -127.5 -92t-68.5 -141q-64 62 -99.5 144.5t-35.5 175.5q0 122 60 225t163 163t225 60t225 -60t163 -163t60 -225q0 -93 -35.5 -175.5t-99.5 -144.5z" />
    <glyph glyph-name="daosanjiao1" unicode="&#xe633;" 
d="M832 521h-640l320 -320z" />
    <glyph glyph-name="chuzhi" unicode="&#xe743;" 
d="M347 585q-15 0 -25.5 -10.5t-10.5 -26t10.5 -26t25.5 -10.5h128v-91q0 -16 11 -26.5t26 -10.5t26 10.5t11 26.5v91h128q15 0 25.5 10.5t10.5 26t-10.5 26t-25.5 10.5h-128v55h128q15 0 25.5 10.5t10.5 26t-10.5 26t-25.5 10.5h-128v3l117 118q11 10 11 25.5t-11 26
t-26 10.5t-26 -11l-102 -102l-102 102q-11 11 -26 11t-26 -10.5t-11 -26t11 -25.5l117 -118v-3h-128q-15 0 -25.5 -10.5t-10.5 -26t10.5 -26t25.5 -10.5h128v-55h-128zM841 681q-18 32 -55 32h-18q-15 0 -26 -10.5t-11 -26t11 -26t26 -10.5h12l141 -256h-226q-15 0 -26 -11
t-11 -26v-109h-292v109q0 16 -11 26.5t-26 10.5h-226l139 256h14q15 0 26 10.5t11 26t-11 26t-26 10.5h-19q-35 0 -54 -30l-183 -336v-329q0 -30 21.5 -51.5t51.5 -21.5h878q30 0 51.5 21.5t21.5 51.5v329zM73 18v293h220v-110q0 -15 10.5 -26t25.5 -11h366q15 0 25.5 11
t10.5 26v110h220v-293h-878z" />
    <glyph glyph-name="rmb" unicode="&#xe628;" 
d="M799 384q14 0 23.5 9.5t9.5 22.5t-9.5 22.5t-23.5 9.5h-223v19l246 246q10 10 10 23t-9 22.5t-22.5 9.5t-23.5 -10l-233 -233l-233 233q-9 10 -23 10t-23 -9t-9 -23t10 -23l246 -246v-19h-223q-14 0 -23.5 -9.5t-9.5 -22.5t9.5 -22.5t23.5 -9.5h223v-128h-223
q-14 0 -23.5 -9.5t-9.5 -22.5t9.5 -22.5t23.5 -9.5h223v-159q0 -14 9.5 -23.5t22.5 -9.5t22.5 9.5t9.5 23.5v159h223q14 0 23.5 9.5t9.5 22.5t-9.5 22.5t-23.5 9.5h-223v128h223z" />
    <glyph glyph-name="mianfeiquan" unicode="&#xe741;" 
d="M865 13h-713q-59 0 -101 42.5t-42 101.5v464q0 59 42 101t101 42h725q59 0 101 -42t42 -101v-58q0 -8 -6 -14t-14.5 -6t-14.5 6t-6 14v58q0 42 -30 72t-72 30h-725q-42 0 -72 -30t-30 -72v-465q0 -42 30 -72t72 -30h713q8 0 14 -6t6 -14.5t-6 -14.5t-14 -6zM878 13h-52
q-9 0 -15 6t-6 14.5t6 14.5t15 6h52q42 0 72 30t30 73v136q0 8 6 14t14.5 6t14.5 -6t6 -14v-136q0 -60 -42 -102t-101 -42zM1000.5 534q-8.5 0 -14.5 6t-6 14v40q0 8 6 14t14.5 6t14.5 -6t6 -14v-40q0 -8 -6 -14t-14.5 -6zM995 272q-63 0 -107.5 44.5t-44.5 107.5
t44.5 107.5t107.5 44.5q8 0 14 -6t6 -14.5t-6 -14.5t-14 -6q-46 0 -78.5 -32.5t-32.5 -78.5t32.5 -78.5t78.5 -32.5q8 0 14 -6t6 -14.5t-6 -14.5t-14 -6zM269 534q-1 -1 -4 -5h65q36 0 22 -30q-4 -11 -21 -37h66q26 3 24 -22v-55q1 -28 -21 -27h-98q-35 -74 -127 -97
q-15 -4 -21 9q-3 12 12 17q79 20 107 71h-64q-24 -1 -22 24v55q-1 -1 -3 -1q-5 -3 -7 -5q-13 -7 -21 3q-5 11 7 18q49 28 83 96q7 13 18 9q11 -8 5 -23zM210 430v-37q0 -12 12 -12h60q2 12 6 52q-1 -4 0 6h-66q-11 0 -12 -9zM301 463q14 19 22 34q2 4 1 5t-7 1h-67
q-15 -22 -34 -40h85zM386 382q5 -1 8 2t3 9v36q1 7 -2 9.5t-9 1.5h-72q-1 -35 -6 -58h78v0zM333 348v-42q-2 -17 19 -16h48q10 -2 14.5 4t3.5 20q2 13 14 15q13 -2 13 -16q1 -49 -34 -48h-62q-41 2 -41 31v53q0 9 12 9q13 -1 13 -10zM587 546v-12h55v10q0 10 11 11
q11 0 13 -10v-11h62q17 2 16 -18v-24q1 -11 -3 -16t-13 -3h-62v-19h70q19 0 19 -16v-13q0 -29 -27 -32v-72q-1 -12 -12 -12q-13 0 -14 12v47q0 7 -2.5 10t-8.5 2h-147q-7 1 -10 -1.5t-3 -8.5v-55q-1 -10 -12 -10q-12 2 -12 11v70q-2 0 -9 -3q-8 -3 -16 -5q-11 -3 -16 7
q-2 12 8 16q43 12 62 33h-37q-11 -1 -16 3.5t-3 12.5q0 1 1 9q1 4 2 10.5t1 8.5q3 16 18 15h60q1 5 1 17h-75q-9 2 -9 13q1 11 11 11h73v12q0 10 12 10t12 -10zM605 362q2 11 12 11q10 -2 12 -13q-2 -82 -143 -105q-13 -1 -15 10q1 11 14 15q117 16 120 82zM560 473h-46
q-3 0 -5 -2.5t-2 -7.5q-3 -5 -1 -7q1 -1 7 -1h39q3 3 8 18zM536 400h167q-2 15 10 15q10 -1 14.5 1t3.5 8q2 10 -6 11h-60v-21q0 -10 -11 -11q-11 0 -12 10v22h-72q-13 -22 -34 -35zM642 454v19h-56q-1 -1 -3 -8t-3 -11h62zM588 494h54v17h-54v-17zM643 321q47 -13 112 -41
q11 -6 7 -16q-5 -10 -16 -6q-5 3 -16 7q-55 25 -93 33q-12 4 -10 14q4 11 16 9zM665 510v-17h48q4 -1 6 1.5t1 7.5q0 8 -7 8h-48z" />
    <glyph glyph-name="paifa" unicode="&#xe6a1;" 
d="M931 829h-838q-38 0 -65.5 -27t-27.5 -65v-324h1q5 -100 47 -189.5t110 -154.5t160.5 -103t193.5 -38t193.5 38t160.5 103t110 154.5t47 189.5h1v324q0 38 -27 65t-66 27zM982 410q-6 -121 -69.5 -222.5t-170 -160t-230.5 -58.5t-230.5 58.5t-170 160t-69.5 222.5h-1v337
q0 41 41 41h860q12 0 26 -10t15 -31v-337h-1zM352 390q-34 28 -92 56l21 30q61 -28 92 -53zM388 315q-34 -80 -83 -173l-32 27q43 71 88 173zM381 532q-33 30 -93 61l20 29q62 -30 95 -58zM730 595q-89 -30 -255 -52v-105q0 -207 -68 -309q-13 13 -33 19q64 94 64 290v136
q177 24 260 54zM758 385q-55 -46 -88 -68q35 -102 94 -144q-18 -13 -29 -33q-100 78 -132 324q-22 -5 -39 -7v-258l82 32q1 -16 7 -32q-116 -50 -129 -62q-6 21 -16 34q20 10 20 34v280q110 19 160 42l32 -31q-26 -11 -84 -25q10 -69 24 -121q43 36 69 64z" />
    <glyph glyph-name="bjesc-3" unicode="&#xe62e;" horiz-adv-x="1027" 
d="M287 -111q-50 0 -84 29q-60 51 -51 183q5 68 21 130q-64 51 -108 105q-12 15 -19.5 24.5t-19.5 30.5t-17 38.5t-5 40.5t9 45q30 72 158 104q67 17 131 21q29 74 66 132q12 19 22 31.5t29 32.5t43 30.5t51 10.5h1h8q46 -4 81.5 -36t66.5 -82q36 -59 60 -118q81 -4 147 -22
q17 -4 28.5 -7.5t33.5 -13.5t36.5 -21t29 -30t19.5 -42q18 -76 -66 -177q-43 -51 -91 -91q22 -79 26 -149v-1q2 -13 0.5 -37.5t-5.5 -48.5t-19 -49t-39 -40q-28 -17 -68.5 -17t-67.5 7.5t-53 18.5q-65 26 -120 61q-68 -45 -132 -69q-62 -24 -102 -24zM512 827
q-17 0 -33 -7.5t-29.5 -23t-21 -25.5t-18.5 -26q-38 -59 -66 -137l-6 -16l-17 -1q-67 -3 -138 -20q-104 -26 -124 -75q-5 -12 -5.5 -24t3 -24.5t8 -22.5t13 -22t13 -18.5t13.5 -17.5q44 -55 112 -107l14 -10l-5 -17q-18 -63 -23 -136q-7 -106 33 -140q21 -18 52 -18t84 20
q66 25 136 73l14 10l14 -10q56 -37 125 -65q24 -10 49.5 -16t52 -6t41.5 10q21 12 31 37.5t9.5 48.5t-0.5 44v0q-4 71 -28 154l-5 16l13 10q51 41 96 95q69 82 56 134q-4 17 -16.5 31t-32 23t-31.5 13.5t-31 9.5q-68 18 -152 21h-17l-6 16q-23 62 -62 124q-56 91 -109 95h-6
zM516 131l-177 306l43 25l134 -231l133 231l43 -25z" />
    <glyph glyph-name="sousuo_sousuo" unicode="&#xe67a;" horiz-adv-x="1025" 
d="M976 -128q-8 0 -16 3q-8 2 -14 7l-6 5l-298 292l-4 -4q-104 -71 -233 -71q-9 0 -26 1q-9 0 -26 3q-92 11 -167 60q-83 51 -131 135q-23 39 -37 83q-13 45 -16 90q-3 44 5 91q12 74 52 138q39 63 101 108q51 40 115 62q63 21 131 21q30 0 54 -4q68 -9 132 -41t110 -81
q55 -57 84 -132q28 -78 25 -155q-5 -131 -93 -235l-4 -5l296 -289v-5h4q11 -14 11 -29q0 -19 -14 -33t-34 -14zM365 845q-5 0 -11 -1l-7 -1q-79 -12 -144 -57q-65 -42 -105 -110q-44 -71 -49 -160q-4 -89 33 -164q32 -69 92 -118.5t134 -69.5q49 -14 97 -14q31 0 60 6
q40 6 80 23q38 16 72 41q32 23 61 55q28 33 46 68q34 64 37 140q4 74 -24 141q-17 44 -43 78q-27 36 -62 66q-37 29 -77 47q-70 32 -149 32q-20 1 -41 -2z" />
    <glyph glyph-name="huiyuanguanlifuben" unicode="&#xe770;" 
d="M351 -16q-40 4 -109 12t-109 12l-22 3q-17 6 -26 12.5t-16 24.5t-2 44q41 111 47 127q31 58 59.5 78t81.5 33q92 13 235 0q36 -4 21 -36q-4 -9 -10 -18q-72 -117 -41 -244q8 -27 1 -38.5t-34 -12.5q-11 0 -28.5 0.5t-25.5 0.5q-3 0 -11 1t-11 1v0zM499 180q40 11 41 11
q31 6 11 31q-6 8 -27 33l34 46q5 7 10.5 14.5t12.5 17t11 15.5q40 -30 41 -31q30 -22 45 13q1 2 14 42q70 0 82 -1q4 0 9 -6.5t7 -12.5q16 -42 25.5 -45t45.5 25q4 3 21 15q6 -8 31 -41t39 -53q0 -1 -11.5 -9t-15.5 -13q-17 -17 -15 -26t25 -15q7 -1 39 -10v-91
q-41 -12 -43 -13q-38 -13 -9 -40q2 -2 26 -22q-6 -6 -40 -38.5t-53 -51.5q-21 20 -27 24q-14 13 -25.5 8.5t-14.5 -23.5q-1 -3 -2 -10t-1 -8q-1 -3 -1.5 -8.5t-1.5 -9.5h-91q-9 40 -9 41q-8 31 -35 15q-2 0 -53 -31q-18 22 -71 92q3 3 8.5 7.5t10 8.5t8.5 7q28 27 -9 40
q-4 1 -42 12v91zM855 136q0 50 -35.5 85t-85 34.5t-84 -35.5t-34 -85t35.5 -85t85 -34q50 0 84 35t34 85zM486 605zM265 604.5q0 -91.5 65 -156t156.5 -64.5t156 64.5t64.5 156t-64.5 156.5t-156 65t-156.5 -65t-65 -156.5z" />
    <glyph glyph-name="xitongcaozuo" unicode="&#xe6d9;" 
d="M911 89l-206 203q20 44 20 92v0q0 88 -62 150.5t-151 62.5v0q-29 0 -57 -7l91 -91q29 -29 27 -71t-32.5 -72.5t-72.5 -32.5t-71 26l-91 92q-7 -28 -7 -57v0q0 -89 62.5 -151.5t150.5 -62.5q49 0 91 21l205 -204q20 -19 48.5 -18t49.5 22t22.5 50t-17.5 48zM855 6
q-15 0 -25.5 10.5t-10.5 25.5t10.5 25.5t25.5 10.5t26 -10.5t11 -25.5v0q0 -15 -11 -25.5t-26 -10.5zM960 479h-21h-48h-1q-14 2 -27 10h-1q-12 8 -20 23.5t-8 29.5v1q0 9 3 20q3 10 10 19l11 11l24 24l15 15q15 20 15 45.5t-16 46.5l-42 42q-21 16 -46.5 16.5t-46.5 -14.5
l-15 -15l-34 -34v0q-30 -24 -65 -9q-11 5 -20 14q-15 16 -18 37v70q-3 26 -21.5 44t-44.5 21h-59q-26 -3 -44.5 -21t-22.5 -43v-70q0 -1 -0.5 -2.5t-0.5 -2.5v-1q0 -1 -1 -5v0q-1 -1 -1.5 -3l-0.5 -2q-1 -1 -3 -6v0q-5 -11 -15 -19q-18 -15 -42 -15v0v0q-22 0 -39 13l-11 11
l-24 24l-15 15q-20 16 -46 15.5t-46 -16.5l-42 -42q-17 -20 -17 -46t15 -47l15 -14l34 -34l2 -4l1 -0.5t1 -1t0.5 -1.5t0.5 -2l1 -0.5t1 -1.5l0.5 -1t1.5 -2v-2q1 0 1.5 -1.5t0.5 -2.5v-1q1 -1 1.5 -3t0.5 -3v-6q5 -30 -18 -53q-15 -15 -37 -18h-70q-26 -4 -44 -22t-21 -44
v-60q3 -25 21 -43.5t43 -22.5h21h49l5 -1h2q3 -1 4 -1q19 -6 32 -24t13 -38v0v0q0 -22 -13 -40l-11 -10l-25 -24l-14 -14q-15 -21 -15 -47t16 -46l42 -43q21 -16 47 -16q25 0 46 16l14 14l35 34l1 1l1.5 1t1.5 2q2 0 3 1l1 1l1 1q1 0 2.5 0.5l1.5 0.5l2 1q1 1 3 1q1 1 2 1
l5 2h1h2.5t2.5 1h1h4q29 1 49 -19q15 -15 18 -38v-15v-54q3 -26 21.5 -44t44.5 -21h60q25 3 43.5 21t22.5 43v20v36v13q2 18 13 32q1 2 2 3l0.5 1t1.5 1q6 6 13 11q1 0 3 2l2 1h1q1 0 2 0.5t2 0.5l-58 58q-36 -11 -78 -11q-116 0 -198 82t-81 198q0 116 82 198.5t199 81.5
q116 0 197.5 -82.5t81.5 -198.5q0 -39 -11 -76l58 -57q3 8 13 19q8 8 21 13q9 4 16 5h70q26 3 44 21.5t21 43.5v61q-3 25 -21 43.5t-43 22.5z" />
  </font>
</defs>
</svg>
